<?xml version="1.0" encoding="utf-8"?>
<!-- Generator: Adobe Illustrator 16.0.0, SVG Export Plug-In . SVG Version: 6.00 Build 0)  -->
<!DOCTYPE svg PUBLIC "-//W3C//DTD SVG 1.1//EN" "http://www.w3.org/Graphics/SVG/1.1/DTD/svg11.dtd">
<svg version="1.1" id="Layer_1" xmlns="http://www.w3.org/2000/svg" xmlns:xlink="http://www.w3.org/1999/xlink" x="0px" y="0px"
	 width="196.667px" height="240px" viewBox="-13.875 -9.725 196.667 240" enable-background="new -13.875 -9.725 196.667 240"
	 xml:space="preserve">
<metadata><?xpacket begin="﻿" id="W5M0MpCehiHzreSzNTczkc9d"?>
<x:xmpmeta xmlns:x="adobe:ns:meta/" x:xmptk="Adobe XMP Core 5.3-c011 66.145661, 2012/02/06-14:56:27        ">
   <rdf:RDF xmlns:rdf="http://www.w3.org/1999/02/22-rdf-syntax-ns#">
      <rdf:Description rdf:about=""
            xmlns:dc="http://purl.org/dc/elements/1.1/">
         <dc:format>image/svg+xml</dc:format>
         <dc:title>
            <rdf:Alt>
               <rdf:li xml:lang="x-default">Print</rdf:li>
            </rdf:Alt>
         </dc:title>
      </rdf:Description>
      <rdf:Description rdf:about=""
            xmlns:xmp="http://ns.adobe.com/xap/1.0/"
            xmlns:xmpGImg="http://ns.adobe.com/xap/1.0/g/img/">
         <xmp:MetadataDate>2019-05-21T01:12:44+09:00</xmp:MetadataDate>
         <xmp:ModifyDate>2019-05-21T01:12:44+09:00</xmp:ModifyDate>
         <xmp:CreateDate>2019-05-21T01:12:43+09:00</xmp:CreateDate>
         <xmp:CreatorTool>Adobe Illustrator CS6 (Macintosh)</xmp:CreatorTool>
         <xmp:Thumbnails>
            <rdf:Alt>
               <rdf:li rdf:parseType="Resource">
                  <xmpGImg:width>244</xmpGImg:width>
                  <xmpGImg:height>256</xmpGImg:height>
                  <xmpGImg:format>JPEG</xmpGImg:format>
                  <xmpGImg:image>/9j/4AAQSkZJRgABAgEASABIAAD/7QAsUGhvdG9zaG9wIDMuMAA4QklNA+0AAAAAABAASAAAAAEA&#xA;AQBIAAAAAQAB/+4ADkFkb2JlAGTAAAAAAf/bAIQABgQEBAUEBgUFBgkGBQYJCwgGBggLDAoKCwoK&#xA;DBAMDAwMDAwQDA4PEA8ODBMTFBQTExwbGxscHx8fHx8fHx8fHwEHBwcNDA0YEBAYGhURFRofHx8f&#xA;Hx8fHx8fHx8fHx8fHx8fHx8fHx8fHx8fHx8fHx8fHx8fHx8fHx8fHx8fHx8f/8AAEQgBAAD0AwER&#xA;AAIRAQMRAf/EAaIAAAAHAQEBAQEAAAAAAAAAAAQFAwIGAQAHCAkKCwEAAgIDAQEBAQEAAAAAAAAA&#xA;AQACAwQFBgcICQoLEAACAQMDAgQCBgcDBAIGAnMBAgMRBAAFIRIxQVEGE2EicYEUMpGhBxWxQiPB&#xA;UtHhMxZi8CRygvElQzRTkqKyY3PCNUQnk6OzNhdUZHTD0uIIJoMJChgZhJRFRqS0VtNVKBry4/PE&#xA;1OT0ZXWFlaW1xdXl9WZ2hpamtsbW5vY3R1dnd4eXp7fH1+f3OEhYaHiImKi4yNjo+Ck5SVlpeYmZ&#xA;qbnJ2en5KjpKWmp6ipqqusra6voRAAICAQIDBQUEBQYECAMDbQEAAhEDBCESMUEFURNhIgZxgZEy&#xA;obHwFMHR4SNCFVJicvEzJDRDghaSUyWiY7LCB3PSNeJEgxdUkwgJChgZJjZFGidkdFU38qOzwygp&#xA;0+PzhJSktMTU5PRldYWVpbXF1eX1RlZmdoaWprbG1ub2R1dnd4eXp7fH1+f3OEhYaHiImKi4yNjo&#xA;+DlJWWl5iZmpucnZ6fkqOkpaanqKmqq6ytrq+v/aAAwDAQACEQMRAD8A9U4q7FXYq7FXYq7FXYq7&#xA;FXYq7FXYq7FVk08MMZkmcRoOrMaDASBzZRgZGgLLHtQ83ItUsU5H/fz7D6F6/fmPPUdztMHZh5zP&#xA;wY9dX13dMWuJWkJ7E7D5DoMxpSJ5u1x4YwHpFLIbieB+cMjRt4qSP1YASOSZwjIURafaf5ulSiXy&#xA;eov+/U2b6V6HMiGo73W5+zAd4GvJklpe2t3H6lvKsi96dR8x1GZMZA8nU5MUoGpClbJNbsVdirsV&#xA;dirsVdirsVdirsVdirsVdirsVdirsVdirsVdirsVdirsVdiqyaaGGMySuI0HVmNBgJA5sowMjQFl&#xA;INQ83RJVLFPUb/fr7L9C9TmPPUdzs8HZhO8zXkxu7vbq7k9S4laRu1eg+Q6DMaUiebtseKMBURSj&#xA;kWx2KuxV2Kr4Z5oJBJC5jkHRlNDhBI5MZwEhRFhkOn+bnWiXycx/v5Nj9K9PuzJhqO91efswHeB+&#xA;DIrW8tbqP1LeRZF706j5jqMyIyB5OqyYpQNSFK2Sa3Yq7FXYq7FXYq7FXYq7FXYq7FXYq7FXYq7F&#xA;XYq7FXYq7FVss0UKGSVwiDqzGg/HATTKMTI0N0g1DzbClUsk9Vv9+vUL9A6nMeeoHR2eDswneezG&#xA;7u/u7x+dxKZD2B6D5AbDMaUiebtcWGMBURShkW12KuxV2KuxV2KuxV2Kr4J5oJBJC7RuOjKaHCCR&#xA;yYzgJCiLDIdO83MKR3ych/v5Bv8ASv8ATMmGo73VZ+zOsPkyO2u7a5j9S3kWRPFT0+Y7ZkxkDydV&#xA;kxygakKVcLB2KuxV2KuxV2KuxV2KuxV2KuxV2KuxV2KuxVbJLHEheRgiL1ZjQD6TgJpMYkmgkOoe&#xA;bbeOqWS+s/8AvxqhB8h1OUT1AHJ2eDs2R3nsxu8v7u8k53EhcjoOij5AbZiymZc3bYsMcYqIQ+Rb&#xA;XYq7FXYq7FXYq7FXYq7FXYq7FXYqqQXE9vIJIJGjcftKaYQSOTCcIyFEWyHTvNxFI75Kjp6yDf6V&#xA;/pmTDUd7q8/ZnWB+DI7e6t7mMSQSLIh7qf1+GZIkDydVPHKBqQpUwsHYq7FXYq7FXYq7FXYq7FXY&#xA;q7FVskkcaF5GCIu5ZjQD6TiTSREk0Ei1DzZbRVSzX1n/AN+HZB/E5jz1AHJ2WDs2R3nsPtY1e6he&#xA;Xj87iQv4L0UfIdMxpTMubt8WCGMVEIfINrsVdirsVdirsVXRRSSuI41Lu2wVRUnCBbGUgBZT/T/K&#xA;Uz0e9f0l/wB9JQt9J6DMiGnPV1mftMDaG6tqHlAGr2MlD/vqT+Df1wz0/cww9p9Jj4hjtzaXNtJ6&#xA;dxG0b+DDr8j3zHlEjm7XHkjMXE2pZFm7FXYq7FXYq7FVS3uri2kEkEjRuO6n9fjkhIjkwnjjMVIW&#xA;yLT/ADd0S+T/AJ7IP1r/AEzIhqO91WfszrA/BkVvc29zGJIJFkQ91P68yRIHk6ueOUDUhRVMLB2K&#xA;uxV2KuxV2KuxVp3RFLuwVF3LE0A+k4kpAJNBItR82WsNUtF9eT+c7IP4nMeecDk7HB2bKW8th9rG&#xA;r3Uby9flcSlx2Xoo+QG2Y0pmXN2+LBDGPSENkG52KuxV2KuxV2Kro4pJXCRqXduiqKk/QMIFolIA&#xA;WU+0/wApXElHvW9FP99rQufmegzIhpyebrM/aURtDdklnp9nZpwt4gni3Vj8yd8yYwEeTqcuaeQ3&#xA;IojJNTsVU7i2guIzHPGsiH9lhXAQDzZwySibBosd1Dyj1exf/ni5/U39cxp6fudpg7T6THxY7cWt&#xA;xbSGOeNo3HZh+rxzHMSObtYZIzFxNqeRZuxV2KuxV2KuxVVtru5tpPUt5GjfxU9fmO+SjIjkwyY4&#xA;zFSFsi0/zcpol8lD/v5Bt9K/0zJhqO91WfszrA/BkMFxBcRiSCRZEP7SmuZAIPJ1c4SiaIpUwsHY&#xA;q7FWnkSNGeRgiKKszGgAHck4qAxvU/POmwVSzBuZP56EIPvoTmNPVRHLd2+n7IyS3l6R9rGrvzBN&#xA;fvW4malfhQ7KPkBtmLLKZc3bY9EMQ9IWAg7jAybxV2KuxV2KuxVuOOSRwkal3bYKoqT9AwgIMgBZ&#xA;T7T/ACncy0e8b0U/32N3P8Bl8NOTzdbn7SjHaG5+xkllp1nZJxt4wlftN1Y/MnMqMBHk6nLnnkPq&#xA;KJyTS7FXYq7FXYq7FVO4tbe5jMc8ayIezD9XhgMQebOGSUDcTTHNR8oneSwev/FLn/iLf1zGnp+5&#xA;2uDtPpP5sent57eQxzxtG4/ZYUzGII5u0hOMhYNqeBm7FXYq7FXYq7FWodWayl5wTMkg68O9Ox7H&#xA;6cRk4eSy03iCpDZkOm+fbV6JfoYz09ZRUfSoqfuzJhqh1dXn7GkN4G/Jk9rd213CJraVZYm6MpqP&#xA;l88ygQRYdNOBiakKIVcLF575z1yS7vmsonItbY8WAOzyD7RPy6DNfqMxJ4Ryen7L0IhEZJfUeXkP&#xA;2sbzFdw7FVSKeWP7J28D0wg0wlAHmjIr6Ntn+A/hkxJolhI5InJNLeKtojuwRFLO2wUCpP0DCAgk&#xA;AWU90/yndTUe7b0I/wCQbuf4DL4YCebrs/aUY7R3P2MlsdNs7JONvGFJ+053Y/MnMqMBHk6jNnnk&#xA;PqKJyTS7FXYq7FXYq7FXYq7FXYq7FVK5tLa5j9O4jWRPBh0+R7YJRB5s8eSUDcTTHdQ8osKvYvUf&#xA;75c7/Q39cxp6fudrg7T6THxY7PBNBIY5kaNx1VhQ5jEEc3awmJCwbCzAydiqhLdxR7V5N4DAZNkc&#xA;RKClu5ZNq8V8BkDK3IjjAUci2OxVMtC1q40q9WVCTAxAuIuzL/Udjl2HLwHycHXaMZof0hy/U9Q+&#xA;sQfV/rPMehw9T1O3CnKv3ZtHjqePO7O7OxqzElj4k5pXvgKFNYpdirsVdiqrDPMhohr/AJPUYQSw&#xA;lAHmnmkw29zMFvZvqqnuRWvtXoPpy/GATvs63UylAegcTOtP06wtIx9VRdx/e/aZh/rZnwgByecz&#xA;Z5zPqKLybQ7FXYq7FXYq7FXYq7FXYq7FXYq7FXYq7FVG6s7W6j9O4jWRe1eo+R6jIyiDzbMeWUDc&#xA;TTC9csdPtJCLO49Zq7w9eP8AsxtmFliByL0GkzZJj1ivP9jG7i4uGJVqoP5cxiS7aEI9EPkW12Ku&#xA;xV2KuxVnvrS/4A58jy9DhXvx58Kf8Dtmzv8Adf5v6HkaH5v/AJKfpYv5l0t9O1WaOn7mUmSA9uLH&#xA;p9HTMHNj4ZPQaDUjLjH84c0qypznYq4Ak0G58MUIqKxkbd/hHh3yQi1SzAckZHDHGPgWnv3ywCnH&#xA;lMnmqYsUZYavf2J/cyfu+8Tbqfo7fRlkMhjycfNpoZOY3ZNp/mmyuKJcf6PKe53Q/wCy7fTmTDOD&#xA;z2dRn7OnHePqH2p0CGAINQdwRl7ryHYq7FXYq7FXYq7FXYq7FXYq7FXYqlmo+YdPs6ry9aYf7rTe&#xA;h9z0GVTzCLmYNFPJvyDGNQ1/UL2ql/ShP+6k2BHuepzFnlMncYNFjx78yluVOWteNHXiwqMSEiRH&#xA;JBzWBG8Rr/knIGDfHN3oRkZTRgQfA5BvBtrFLsVVrO0nvLqO2gUtLKeKgfiT7DqclCBkaDTnzRxQ&#xA;MpdHqn6Lg/RH6N29L0fR5UH8tOVPGu+bfhFV0eK8WXHx/wAV38ebtU0my1O39G6SoG6OuzKfFTgn&#xA;ASFFOHPLFLiiaLC9T8i6hbAyWri5iHanFwP9Xev0Zgz0pHLd6LT9rwntMcJ+xJV02QNSQ8SDQqOv&#xA;45RwOwOcdEVFBFGPhG/j3yYFNMpk81TFi7FXYq7FXYqjdP1i/sT+5esfeJt1P0dvoyyGQx5OPm0s&#xA;MnMb97JtP80WNzRJ/wDR5T/MfgPyb+uZUM4PPZ0+fs+cNx6gnIIIBBqD0OXOA7FXYq7FXYq7FXYq&#xA;7FUt1HzBYWVULerMP91pvQ/5R6DKp5RFy8Gink35BjGoeYdQvKry9GE/7rTao9z1OYs8xk7jBose&#xA;PfmUsypzHYq7FXYq7FVrxo4o4BGJCRIjkhJNP3rG30H+uQMG+OfvTHTfJuq3lHelvCf92PWpHsvU&#xA;5bDTSk4mftXFj2HqLNNE8u2GkoTEDJcOKPO/2qeAHYZnY8QgNnntXrJ5jZ5dAmmWOI7FXYqg7/SL&#xA;C+H76P8AedpV2YfT3+nITxiXNyMOqnj5HZjOoeVr23q9v/pEQ7DZx/se/wBGYs8BHLd2+DtGEtpe&#xA;k/YkpBBIIoRsQcpdg7ArsVdirsVdirsVR2n6zf2JAiflF3ifdf7PoyyGQxcbPpYZOY372Taf5nsL&#xA;qiSn6vKezn4T8m/rmVDODz2dRn7PnDceoJwCCKjplzgOxV2KuxVLdQ1/T7Kql/VmH+6k3IPuegyq&#xA;eURcvBosmTfkGM6h5i1C8qgb0IT/ALrQ7ke7dTmNPMS7fBoccN+ZSvKXNdirsVdirsVdirsVTPT/&#xA;AC9qF5RuPown/dj7VHsOpy2GEycPPrcePbmWTad5fsLKjhfVmH+7H3ofYdBmVDEIuoz62eTbkEzy&#xA;1w3Yq7FXYq7FXYq7FUFf6NYXwJmjpJ2lTZvv7/TkJ4xLm5GHVTx8jt3MZ1DyvfW1Xg/0iIfyj4x8&#xA;1/pmLPARy3dxg7QhPY+kpMQQSCKEdRlDnuxV2KuxV2KuxV2Ko7T9av7EgRScoh1ifdfo8PoyyGUx&#xA;cbNpIZOY372Uaf5lsLqiSH6vMf2XPwk+zf1zKhmB8nT59BOG49QVdQ17T7Kqs/qSj/dSbn6T0GSn&#xA;lEWvDo8mTkKDGdR8yahd1RD6EJ/YQ7ke7dcxZ5iXcYNBCG53KVZS5rsVdirsVdirsVdiqZafoGoX&#xA;tGCelCf92vsCPYdTlsMRk4mfW48e3Msn07y9YWdGK+tMP92OOh9l6DMqGERdPn1s8m3IJnlrhuxV&#xA;2KuxV2KuxV2KuxV2KuxV2KoHUNFsL4Eypxl7Sps30+P05XPGJOTg1c8fI7dzGdQ8sX9rV4h9YiHd&#xA;B8Q+a/0zGngI5bu3wdoQnsfSUnIIND1yhz3Yq7FXYq7FXYq7FXYq7FXYq7FXYq7FXYqmOnaDf3pD&#xA;Knpwn/dr7CnsOpy2GIycTPrIY/M9zJ9P8u6fZ0cr68w/3Y42B9l6DMqGEB0+fXZJ7cgmmWuG7FXY&#xA;q7FXYq7FXYqlus63Dp0YFPUuHFUjr0Hi3tlWTKI+9y9LpDlPdFilxr2rTsSbhkHZYzwA+7fMQ5ZH&#xA;q7qGjxR6X793W+vatAwYXDOO6yHmD9+IyyHVZ6PFIcq92zIdO81Wk9I7ofV5D+11Q/T2+nMmGcHm&#xA;6vP2dKO8fUPtTtWVlDKQVO4I3By915FN4odirsVQGo6JYXwJkThL2lTZvp8fpyueIScnBq54+R27&#xA;mMah5av7Wrxj6xCP2kHxAe6/0zFnhI83cYNfCex9JSnKXOdirsVdirsVdirsVdirsVdiqYadoV/f&#xA;UZE9OE/7tfYfR3OWwxGTi59ZDHsdz3Mn0/y3p9pR3HrzD9txsD7L0zJhhAdPn1857DYJrlzhOxV2&#xA;KuxVKtQ8yafaVRD68w/YQ7A+7dMpnmAc3BoJz3OwY3d+Y9UuGPGUwp2SPb8euY0s0i7bFoccel+9&#xA;Qi1rVYm5LdSE+DsXH3NXAMkh1bJaXEf4QyXRPMa3rC3uQI7g/YI+y/8AQ5k4s3FsebqdXoTjHFHe&#xA;Kd5e6553qF213ezXDGvNjx9lGyj7s105WbeqwYxCAih8g2uxV2Kouw1a+sW/cSEJ3jbdD9H9MnHI&#xA;Y8mjNpoZPqDJtO81WdxRLkfV5TtU7ofp7fTmVDODz2dRn7OnHePqH2p2CGAINQdwRl7riHYq7FXY&#xA;ql+o6HYXwLOnCY/7tTZvp8fpyueIScrBq54+R27mMah5b1C0q6L68I/bQbge69cxZ4SHcYNfCex2&#xA;KVZS5rsVdirsVdirsVR+n6HqF9Ro04RH/dr7L9Hc/RlkMRk4ufVwx8zv3Mn0/wAtWFrR5B9YmH7T&#xA;j4QfZf65lQwgebqM+vnPYekJtlzguxV2KuxVK9Q8xafZ1QN68w/3Wh2B926DKp5gHMwaHJPfkGMa&#xA;jr+oXtVZ/ShP+6k2BHuepzFnlMncYNFDHvzPel2VOW7FXYq2jsjq6EqykFWHUEdMKCARRZ7+kP8A&#xA;cP8AXqDl6PqU7cqdPvzP4/TbzXgfveDzpgk0TQzPE/2o2Kt8waZgEUXpISEgCOqzAydirsVdirsV&#xA;Rlhq9/Yn9zJ+77xNup+jt9GWQyGPJx82mhk5jdk2n+abK4olx/o8p7ndD/su305kwzg89nUZ+zpx&#xA;3j6h9qdAhgCDUHcEZe68h2KuxV2KpdqGg6fe1Z09OY/7tTY/T2OVzxCTlYNZPHyNjuYxqPl3ULOr&#xA;qvrwj/diDcD3XqMxZ4SHcYNdCe3IpXlLmuxVHafot/fEGKPjF/v19l+jx+jLIYzJxs2rhj5nfuZP&#xA;p3lmxtaPKPrEw7sPhB9l/rmVDCB5unz6+c9h6Qm+XOC7FXYq7FUs1DzDp9nVeXrTD/dab0Puegyq&#xA;eYRczBosmTfkGMajr9/e1Ut6UJ/3Um1R/lHqcxZ5TJ3GDRQx78yluVOW7FXYq7FXYq7FWbfVJf8A&#xA;DX1en7z6vXj3rTlT+GZ3D6K8nnvEH5ji6cSD8x6DJM5vLReTkfvoh1NP2l98hmxXuG/Q6wRHBLl0&#xA;YqQVJBFCNiDmK7oF2BXYq7FXYq7FXYqjbDWb+xIEMlY+8T7r93b6MshkMeTj5tLDJzG/eybT/NFj&#xA;c0Sf/R5T/MfgPyb+uZUM4PPZ0+fs+cNx6gnIIIBBqD0OXOA7FXYq7FUFdaLpd0xeWBeZ6stVJ+fG&#xA;lchLHE9HIx6vJDYFZB5f0iFgy24Zh0Lkt+BJGAYojoynrcstrTAAAUHTLHFdirsVdiqW6jr+n2VV&#xA;L+rMP91Jua+56DKp5RFy8Gink35DvYxqHmHULyq8vRhP+602qPc9TmLPMZO4waLHj35lLMqcx2Ku&#xA;xV2KuxV2KuxVPNB8vy3EqXN0hS2UhlVhu5+X8uZGLFe55Ot1mtERwx+r7mYZmOidiqDv9IsL4fvo&#xA;/wB52lXZh9Pf6chPGJc3Iw6qePkdmM6j5Xvbar2/+kRDso+Mf7Hv9GYs8BHLd2+DtCE9pek/YkpB&#xA;BIIoR1GUOwdirsVdirsVdirsVR2n61f2JpE/KLvE+6/R4fRlkMhi42fSwycxv3sm0/zPYXVElP1e&#xA;U9nPwn5N/XMqGcHns6jP2fOG49QTgEEVHTLnAdirsVdirsVdiqXajr1hY1Vm9WYf7qTcj5noMqnl&#xA;EXLwaOeTfkO9jGoeYtQvKoG9CE/7rQ7ke7dTmNPMS7fBoccN+ZSvKXNdirsVdirsVdirsVTPT/L2&#xA;oXlG4+jCf92PtUew6nLYYTJw8+tx49uZZNp/l7T7OjcfWmH+7H3ofYdBmVDCIuoz63Jk25BM8tcN&#xA;2KuxV2KuxVBX+jWF8CZo6SdpU2b7+/05CeMS5uRh1U8fI7dzGdR8r31tV4P9IiH8o+MfNf6ZizwE&#xA;ct3cYO0IT2PpKTEEGh65Q57sVdirsVdirsVdiqP0/W7+xIEb84u8T7r9Hh9GWQymLjZ9JDJzG/ey&#xA;fT/MthdUSQ/V5j+y5+En2b+uZUMwPk6fPoJw3HqCbZc4LsVS7UNe0+yqrv6kw/3Um5+nsMrnlEXK&#xA;waOeTkKHexnUPMmoXdURvQhP7CHcj3brmLPMS7jBoIQ3O5SrKXNdirsVdirsVdirsVTLT9A1C9ow&#xA;T0oT/u19gR7DqcthiMnEz63Hj25lk2neXbCzo5X1ph/ux+x/yV6DMqGERdPn108m3IJplrhuxV2K&#xA;uxV2KuxV2KuxV2KoHUNFsL4Eyx8Zf9+ps30+P05XPGJOTh1c8fI7dzGdQ8sX9rV4h9YiHdB8Q+a/&#xA;0zGngI5bu3wdoQnsfSUnIIND1yhz3Yq7FXYq7FXYq7FUfp+uahY0WN+cI/3U+6/R3H0ZZDKYuLn0&#xA;kMnMb96vqHmW/uwUQ/V4T1VDufm39MlPMS14NBCG59RSnKXOdirsVdirsVdirsVTDT9B1C9oyJ6c&#xA;J/3a+w+jucthiMnFz6yGPmbPcyjTvLthZ0Zl9eYf7scbA+y9BmVDCA6fPrpz25BNMtcJ2KuxV2Ku&#xA;xV2Koe+v7aygM1w3FeigbknwAyMpiIstuHDLIaixy5843RYi3hRE7F6sfwIGYx1B6O2h2XH+Il1t&#xA;5xugwFxCjp3KVVvxJGI1B6rPsuNeklkFhq1jfL+4kBfvG2zj6P6ZkRyCXJ1ebTTx/UEXk2h2KuxV&#xA;Aahoen31WkThKf8AdqbN9PY/Tlc8Qk5WDVzx8jt3MY1Dy1f2tXjH1iEftIPiA91/pmLPCR5u3wa+&#xA;E9j6SlOUuc7FXYq7FXYq7FXYq7FXYq7FXYq7FUw07Q7++IZE4Qn/AHa+y/R45ZDEZOLn1cMfM2e5&#xA;k+n+W9PtKO49eYftuNgfZemZUMIDp8+vnPYbBNcucJ2KuxVRu721tI/UuJVjXtXqfkOpyMpAc2zH&#xA;ilM1EWx6784vyItIBxH7ctTX/YqR+vMeWo7naYuyx/EfkoQ+cL9W/exRuvcCqn76n9WRGoLbLsuB&#xA;5EhkGl6xaagh9IlZV3eJuo9x4jMiGQSdXqNLLEd+XejsscZgWt6g97fyNX91GSkQ7cQev09c1+Wf&#xA;EXpdJhGOAHU80BlblOxVysysGUkMNwRsRhQRad6d5qvIKJcj6xF/MdnH09/py6Gcjnu6/P2dCW8f&#xA;SfsZPY6pY3q1t5AW7xnZh9GZUZiXJ1GbTzx/UEVk2h2KuxVL9R0Kwvqs6enN/v1Nj9PY5XPEJOVg&#xA;1k8fLcdzGNQ8t6haVdF9eEftoNwPdeuYs8JDuMGvhPY7FKspc12KuxV2KuxV2KuxV2Ko/T9D1C+o&#xA;0acIj/u19l+jufoyyGIycXPq4Y+Z37mT6f5asLWjyD6xMP2nHwg+y/1zKhhA83UZ9fOew9ITbLnB&#xA;dirsVUbu9tbSP1LiQRr2r1PyHU5GUgObZjxSmaiLY3qHm6V6pYp6a/79fdvoXoMxp6judtg7MA3m&#xA;b8kgmmmmkMkrtI56sxqcxySebs4wERQFBZgZOxVVtLqW1uEniNHQ1Hv4g/PJRlRthkxicTE9XoH1&#xA;yL6j9c/3V6fq/RSubDi2t5fwjx8HW6edspVipFCDQj3Ga56oG2sCXYq7FXYq2rMjBkJVhuGBoRhQ&#xA;QDzTvT/Nd3BRLofWI/5ujj6e/wBOXwzkc3XZ+zoy3j6T9jJrHU7K9TlbyBj+1GdmHzGZMZiXJ1Gb&#xA;Tzxn1BFZNpdirsVS7UdBsL2rMnpzH/dqbH6R0OVzxCTl4NZPH5juYxqHl3ULOrhfXhH+7EG4HuvU&#xA;ZizwkO3wa7HPbkUrylzXYq7FXYqjtP0W/viDFHxi/wB+vsv0eP0ZZDGZONm1cMfM79zJtP8ALFha&#xA;0eUfWJR3cfCPkv8AXMqGADnu6jP2hOew9ITgAAUHTLnAdirsVUbq8tbWP1LiRY17V6n5DqcjKQHN&#xA;sx4pTNRFsd1Dzc7VSxTgP9/PufoXp9+Y89R3O1wdmAbzPwY9PPNPIZJnaRz1ZjU5jEk83aQgIigK&#xA;CzAydirsVdirsVZl6b/4U40+L6vyp7fa/VmbX7v4Og4h+Z/zko8y6RJb3LXcS1t5jVqfssetfnlO&#xA;bHRvo52g1IlHhP1BJModi7FXYq7FXYq7FW0d0YOjFXXcMDQj6RhBQQCKKe6f5suoaJdr68f842cf&#xA;wOXwzkc3XZ+zYy3jsfsZLY6lZ3qcreQMR9pDsw+YOZUZiXJ1GbBPGfUETkml2KuxVLdR0DT72rFP&#xA;SmP+7U2NfcdDlU8Qk5eDWzx7cwx268rapEx9JVnTsykA/SGpmPLBIO1x9o45c9lkHlnV5Go0QiXu&#xA;zsKfhU4BgkWU+0MQHO0/07yxY2tHm/0iUfzD4B8l/rmRDABz3dZn7QnPYekJwAAKDplzgOxV2KqV&#xA;zd21tH6lxIsaeLHr8h3wSkBzZ48cpmoi2O6h5uY1SxSg/wB/ON/oX+uY09R3O1wdmdZn4Mdnnmnk&#xA;MkztI56sxqcxiSebtYQERQFBZgZOxV2KuxV2KuxVHaPpUuoXIQAiBTWaTsB4fM5Zjx8RcbVagYo3&#xA;16M89NPT9PiPTpx49qUpTM+nmuI3fVtlVlKsAykUIO4IwqDSR6j5UtJ6vaH0Jf5eqH+n0ZRPADyd&#xA;jg7RlHaW4+1jN7pl7ZNxuIio7ON1PyIzFlAx5u3xaiGQekobINzsVdirsVdirsVbjkkjcPGxR13D&#xA;KaEfSMIKDEEUU+0/zZcxUS8X1k/34NnH8Dl8NQRzdbn7NjLeGx+xkllqNnepyt5Q57p0YfMHfMqM&#xA;xLk6nLgnjPqCJyTS7FXYq7FXYq7FVO4ure2jMk8ixoO7H9XjgMgObOGOUzURbHNR83HeOwSn/Fzj&#xA;/iK/1zGnqO52uDszrP5MenuJ7iQyTyNI5/aY1zGJJ5u0hCMRQFKeBm7FXYq7FXYq7FVW2tLm6kEd&#xA;vGZH8B2+Z6DJRiTyYZMsYC5GmR6f5RRaPfPyP++U2H0t1+7MmGn73U5+0zygPiyGGCGCMRwoI416&#xA;KooMyAAOTq5zMjZNlfhYuxV2KtOiOpR1DI2xUioP0HEhIJBsJFqPlO1mq9o3oSfyHdD/ABGY88AP&#xA;J2ODtKUdpbj7WNXunXlk/G4iKDs3VT8iNsxpQMebt8WeGQekobINzsVdirsVdirsVXRyyROHjYo6&#xA;9GU0I+kYQaRKIIop9p/m24jol6vrJ/vxaBx8x0OZENQRzdZn7Nid4bMks9Qs7xOdvKH8V6MPmDvm&#xA;TGYlydTlwzxmpBEZJqdiqncXMFvGZJ5FjQftMaYCQObOGOUjQFljuoebuqWKf89nH6l/rmNPUdzt&#xA;MHZnWZ+DHbi6uLmQyTyNI57sf1eGY5kTzdrDHGAqIpTyLN2KuxV2KuxV2KqttaXNzJ6dvG0j+Cjp&#xA;8z2yUYk8mGTJGAuRpkWn+UVFHvnqf98odvpb+mZMNP3uqz9p9ID4shgt4LeMRwRrGg/ZUUzIAA5O&#xA;rnOUjZNqmFg7FXYq7FXYq7FXYqtkjjkQpIodG2KsKg/QcSLSJEGwkWoeU7aWr2bei/8Avs7of4jM&#xA;eenB5OywdpSG09x9rGr3T7yzfhcRlPBuqn5HpmNKBjzdvizwyC4lD5BtdirsVdirsVdiq6KWSJxJ&#xA;GxR13DKaEYQaYyiCKKf6f5tmSiXqeqv+/UoG+kdDmRDUHq6zP2YDvDZW1DzeBVLGOp/37J/Bf64Z&#xA;6juYYezOsz8Ax25u7m5k9S4kaR/Fj0+Q7ZjykTzdrjxxgKiKUsizdirsVdirsVdiqpb2txcyCOCN&#xA;pHPZR+vwyQiTyYTyRgLkaZFp/lHo98//ADxQ/rb+mZENP3uqz9p9ID4sit7a3toxFBGI0HZR+vMk&#xA;RA5OrnklM3I2VTCwdirsVdirsVdirsVdirsVdirsVWyRRyoUkUOjdVYVB+g4CLTGRBsJDqHlK3kq&#xA;9k3ov/vtqlD8j1GUT04PJ2eDtKQ2nuxu8sLuzk4XEZQnoeqn5EbZiygY83bYs0cguJQ+RbXYq7FX&#xA;Yq7FXYq7FXYq7FXYq7FXYqqQW89xII4I2kc/sqK4QCeTCc4xFk0yHTvKJNJL56Dr6KHf6W/pmTDT&#xA;97q8/afSA+LI7e1t7aMRwRrGg7KP1+OZIiBydVPJKZuRtUwsHYq7FXYq7FXYq7FXYq7FXYq7FXYq&#xA;7FXYq7FVssMUyGOVA6HqrCo/HARbKMjE2Nkg1DylC9Xsn9Jv99PUr9B6jMeenHR2eDtMjae7G7uw&#xA;u7N+FxEYz2J6H5EbHMaUSObtcWaMxcTahkW12KuxV2KuxV2KuxV2Kr4IJp5BHCjSOeiqKnCATyYz&#xA;mIiyaDIdO8osaSXz8f8AilDv9Lf0zJhp+91WftPpD5sjtrS2to/Tt41jTwUdfme+ZMYgcnVZMkpm&#xA;5G1XCwdirsVdirsVdirsVdirsVdirsVdirsVdirsVdirsVdirsVWTQwzRmOVBIh6qwqMBAPNlGZi&#xA;bBopBqHlGJ6vYv6bf76fdfobqMx56fudng7TI2mL82N3dldWknp3ETRt2r0PyPQ5jSiRzdtjyxmL&#xA;ibUci2OxV2KuxVfDBNPII4UMkh6KoqcIBPJjOYiLJoMh0/yi7Ue+fgP98pufpbp92ZMNP3urz9pg&#xA;bQHxZFa2drax+nbxrGvenU/M9TmRGIHJ1WTLKZuRtWyTW7FXYq7FXYq7FXYq7FXYq7FXYq7FXYq7&#xA;FXYq7FXYq7FXYq7FXYq7FXYqsmghmjMcyCRD1VhUYCAebKMzE2DRY9qHlFGq9i/E/wC+X3H0N1+/&#xA;Meen7naYO0zymPix66sbu1YrcRNGR3I2PyPQ5jSiRzdrjzRmPSbWQ28878IY2kbwUE/qwAE8kznG&#xA;Ismk+0/yjK9Hvn9Nf99Ju30t0GZENP3utz9pgbQF+bJLSytbSP07eJY1706n5nqcyYxA5OpyZZTN&#xA;yNq2Sa3Yq7FXYq7FXYq7FXYq7FXYq7FXYq7FX//Z</xmpGImg:image>
               </rdf:li>
            </rdf:Alt>
         </xmp:Thumbnails>
      </rdf:Description>
      <rdf:Description rdf:about=""
            xmlns:xmpMM="http://ns.adobe.com/xap/1.0/mm/"
            xmlns:stRef="http://ns.adobe.com/xap/1.0/sType/ResourceRef#"
            xmlns:stEvt="http://ns.adobe.com/xap/1.0/sType/ResourceEvent#">
         <xmpMM:InstanceID>xmp.iid:0280117407206811822AD077530356C9</xmpMM:InstanceID>
         <xmpMM:DocumentID>xmp.did:0280117407206811822AD077530356C9</xmpMM:DocumentID>
         <xmpMM:OriginalDocumentID>uuid:5D20892493BFDB11914A8590D31508C8</xmpMM:OriginalDocumentID>
         <xmpMM:RenditionClass>proof:pdf</xmpMM:RenditionClass>
         <xmpMM:DerivedFrom rdf:parseType="Resource">
            <stRef:instanceID>xmp.iid:0180117407206811822AD077530356C9</stRef:instanceID>
            <stRef:documentID>xmp.did:0180117407206811822AD077530356C9</stRef:documentID>
            <stRef:originalDocumentID>uuid:5D20892493BFDB11914A8590D31508C8</stRef:originalDocumentID>
            <stRef:renditionClass>proof:pdf</stRef:renditionClass>
         </xmpMM:DerivedFrom>
         <xmpMM:History>
            <rdf:Seq>
               <rdf:li rdf:parseType="Resource">
                  <stEvt:action>saved</stEvt:action>
                  <stEvt:instanceID>xmp.iid:8833A85D1C206811822AD11B8B9E0B5F</stEvt:instanceID>
                  <stEvt:when>2019-04-03T21:27:13+09:00</stEvt:when>
                  <stEvt:softwareAgent>Adobe Illustrator CS6 (Macintosh)</stEvt:softwareAgent>
                  <stEvt:changed>/</stEvt:changed>
               </rdf:li>
               <rdf:li rdf:parseType="Resource">
                  <stEvt:action>saved</stEvt:action>
                  <stEvt:instanceID>xmp.iid:0280117407206811822AD077530356C9</stEvt:instanceID>
                  <stEvt:when>2019-05-21T01:12:44+09:00</stEvt:when>
                  <stEvt:softwareAgent>Adobe Illustrator CS6 (Macintosh)</stEvt:softwareAgent>
                  <stEvt:changed>/</stEvt:changed>
               </rdf:li>
            </rdf:Seq>
         </xmpMM:History>
      </rdf:Description>
      <rdf:Description rdf:about=""
            xmlns:illustrator="http://ns.adobe.com/illustrator/1.0/">
         <illustrator:StartupProfile>Print</illustrator:StartupProfile>
      </rdf:Description>
      <rdf:Description rdf:about=""
            xmlns:xmpTPg="http://ns.adobe.com/xap/1.0/t/pg/"
            xmlns:stDim="http://ns.adobe.com/xap/1.0/sType/Dimensions#"
            xmlns:xmpG="http://ns.adobe.com/xap/1.0/g/">
         <xmpTPg:HasVisibleOverprint>False</xmpTPg:HasVisibleOverprint>
         <xmpTPg:HasVisibleTransparency>False</xmpTPg:HasVisibleTransparency>
         <xmpTPg:NPages>1</xmpTPg:NPages>
         <xmpTPg:MaxPageSize rdf:parseType="Resource">
            <stDim:w>69.379744</stDim:w>
            <stDim:h>84.666667</stDim:h>
            <stDim:unit>Millimeters</stDim:unit>
         </xmpTPg:MaxPageSize>
         <xmpTPg:PlateNames>
            <rdf:Seq>
               <rdf:li>Cyan</rdf:li>
               <rdf:li>Magenta</rdf:li>
               <rdf:li>Yellow</rdf:li>
               <rdf:li>Black</rdf:li>
            </rdf:Seq>
         </xmpTPg:PlateNames>
         <xmpTPg:SwatchGroups>
            <rdf:Seq>
               <rdf:li rdf:parseType="Resource">
                  <xmpG:groupName>Default Swatch Group</xmpG:groupName>
                  <xmpG:groupType>0</xmpG:groupType>
               </rdf:li>
            </rdf:Seq>
         </xmpTPg:SwatchGroups>
      </rdf:Description>
      <rdf:Description rdf:about=""
            xmlns:pdf="http://ns.adobe.com/pdf/1.3/">
         <pdf:Producer>Adobe PDF library 10.01</pdf:Producer>
      </rdf:Description>
   </rdf:RDF>
</x:xmpmeta>
                                                                                                    
                                                                                                    
                                                                                                    
                                                                                                    
                                                                                                    
                                                                                                    
                                                                                                    
                                                                                                    
                                                                                                    
                                                                                                    
                                                                                                    
                                                                                                    
                                                                                                    
                                                                                                    
                                                                                                    
                                                                                                    
                                                                                                    
                                                                                                    
                                                                                                    
                                                                                                    
                           
<?xpacket end="w"?>
	</metadata>
<g>
	<polygon fill="none" points="35.78,66.135 85.072,91.125 134.44,66.135 85.072,41.147 	"/>
	<path fill="#00C0E1" d="M166.55,57.015c0.128,0.095,0.255,0.188,0.375,0.288C166.805,57.203,166.678,57.11,166.55,57.015z"/>
	<path fill="#00C0E1" d="M3.307,57.314c0.133-0.109,0.271-0.21,0.41-0.315C3.58,57.102,3.438,57.204,3.307,57.314z"/>
	<path fill="#00C0E1" d="M165.625,56.391c0.129,0.077,0.26,0.156,0.385,0.239C165.889,56.546,165.757,56.47,165.625,56.391z"/>
	<path fill="#00C0E1" d="M4.219,56.638c0.137-0.091,0.277-0.174,0.418-0.259C4.498,56.465,4.356,56.548,4.219,56.638z"/>
	<path fill="#00C0E1" d="M2.471,58.072C2.6,57.94,2.74,57.818,2.876,57.694C2.737,57.817,2.6,57.941,2.471,58.072z"/>
	<path fill="#00C0E1" d="M1.709,58.911c0.127-0.155,0.262-0.303,0.396-0.45C1.971,58.608,1.836,58.755,1.709,58.911z"/>
	<path fill="#00C0E1" d="M165.719,75.83c-0.121,0.073-0.246,0.14-0.371,0.21C165.475,75.969,165.598,75.905,165.719,75.83z"/>
	<path fill="#00C0E1" d="M167.005,74.901c-0.054,0.046-0.103,0.096-0.161,0.14C166.903,74.998,166.952,74.946,167.005,74.901z"/>
	<path fill="#00C0E1" d="M5.212,76.22c-0.202-0.105-0.399-0.222-0.593-0.339C4.817,75.999,5.012,76.115,5.212,76.22z"/>
	<path fill="#00C0E1" d="M169.059,72.676c-0.025,0.037-0.057,0.072-0.082,0.109C169.002,72.748,169.032,72.713,169.059,72.676z"/>
	<path fill="#00C0E1" d="M168.162,73.789c-0.09,0.098-0.179,0.194-0.267,0.287C167.983,73.983,168.072,73.885,168.162,73.789z"/>
	<path fill="#00C0E1" d="M169.891,71.291c0.043-0.088,0.076-0.178,0.116-0.266c-0.063,0.134-0.127,0.266-0.196,0.396
		C169.835,71.375,169.865,71.336,169.891,71.291z"/>
	<path fill="#00C0E1" d="M4.229,75.641c-0.181-0.121-0.354-0.248-0.527-0.378C3.877,75.393,4.05,75.52,4.229,75.641z"/>
	<path fill="#00C0E1" d="M2.473,74.206c-0.129-0.13-0.25-0.266-0.373-0.401C2.223,73.94,2.344,74.077,2.473,74.206z"/>
	<path fill="#00C0E1" d="M3.313,74.965c-0.156-0.127-0.303-0.261-0.449-0.395C3.01,74.705,3.161,74.838,3.313,74.965z"/>
	<path fill="#00C0E1" d="M170.787,63.423c0.038,0.157,0.073,0.315,0.101,0.474C170.856,63.739,170.824,63.581,170.787,63.423z"/>
	<path fill="#00C0E1" d="M170.456,69.943c-0.062,0.174-0.129,0.347-0.199,0.518C170.328,70.29,170.393,70.117,170.456,69.943z"/>
	<path fill="#00C0E1" d="M170.787,68.849c-0.047,0.196-0.101,0.393-0.163,0.589C170.68,69.241,170.735,69.045,170.787,68.849z"/>
	<path fill="#00C0E1" d="M169.463,60.238c0.111,0.184,0.223,0.37,0.321,0.562C169.688,60.61,169.577,60.423,169.463,60.238z"/>
	<path fill="#00C0E1" d="M168.852,59.325c0.119,0.161,0.238,0.323,0.352,0.492C169.09,59.65,168.971,59.487,168.852,59.325z"/>
	<path fill="#00C0E1" d="M170.456,62.33c0.059,0.17,0.113,0.337,0.168,0.507C170.573,62.666,170.516,62.498,170.456,62.33z"/>
	<path fill="#00C0E1" d="M170.995,67.757c-0.029,0.207-0.066,0.412-0.107,0.618C170.928,68.169,170.966,67.964,170.995,67.757z"/>
	<path fill="#00C0E1" d="M171.1,66.676c-0.01,0.199-0.027,0.398-0.043,0.596C171.073,67.073,171.09,66.875,171.1,66.676z"/>
	<path fill="#00C0E1" d="M170.008,61.246c0.09,0.188,0.172,0.375,0.248,0.564C170.178,61.621,170.096,61.434,170.008,61.246z"/>
	<path fill="#FFAEA7" d="M15.698,55.957l20.08,10.18l49.291-24.988l49.365,24.988l20.116-10.183
		c3.431-1.735,7.319-1.567,10.48,0.098c-0.058-0.03-0.111-0.067-0.171-0.098L90.221,18.17c-3.24-1.64-7.074-1.64-10.314,0.003
		L5.377,55.957C5.315,55.988,5.26,56.025,5.2,56.058C8.362,54.384,12.262,54.215,15.698,55.957z"/>
	<path fill="#00C0E1" d="M171.1,65.595c0.01,0.18,0.012,0.36,0.012,0.54C171.112,65.956,171.11,65.777,171.1,65.595z"/>
	<path fill="#00C0E1" d="M170.995,64.515c0.025,0.16,0.041,0.323,0.059,0.485C171.038,64.838,171.02,64.675,170.995,64.515z"/>
	<path fill="#00C0E1" d="M167.395,57.712c0.123,0.114,0.248,0.229,0.371,0.348C167.649,57.941,167.524,57.829,167.395,57.712z"/>
	<path fill="#00C0E1" d="M168.162,58.484c0.124,0.135,0.248,0.271,0.366,0.416C168.411,58.757,168.286,58.621,168.162,58.484z"/>
	<path fill="#00C0E1" d="M2.102,73.804c-0.131-0.145-0.264-0.288-0.388-0.441C1.836,73.515,1.969,73.66,2.102,73.804z"/>
	<path fill="#00C0E1" d="M171.112,66.135c0,0.18-0.002,0.36-0.01,0.54C171.11,66.496,171.112,66.317,171.112,66.135z"/>
	<path fill="#00C0E1" d="M171.057,67.272c-0.021,0.163-0.035,0.323-0.06,0.485C171.02,67.595,171.038,67.433,171.057,67.272z"/>
	<path fill="#00C0E1" d="M169.811,71.422c-0.229,0.438-0.474,0.859-0.752,1.254C169.339,72.276,169.584,71.853,169.811,71.422z"/>
	<path fill="#00C0E1" d="M166.846,75.041c-0.361,0.289-0.74,0.548-1.127,0.787C166.112,75.584,166.49,75.324,166.846,75.041z"/>
	<path fill="#FFAEA7" d="M154.553,76.319l-20.117-10.184L85.072,91.126L35.78,66.136L15.7,76.317
		c-3.432,1.74-7.324,1.571-10.487-0.096c0.058,0.031,0.108,0.065,0.166,0.096l74.529,37.78c1.622,0.822,3.391,1.234,5.159,1.234
		c1.768,0,3.535-0.412,5.154-1.229l74.637-37.784c0.17-0.085,0.324-0.187,0.49-0.279c-1.72,0.978-3.664,1.511-5.652,1.511
		C157.964,77.551,156.204,77.155,154.553,76.319z"/>
	<path fill="#00C0E1" d="M167.893,74.077c-0.285,0.292-0.578,0.567-0.889,0.825C167.319,74.641,167.612,74.366,167.893,74.077z"/>
	<path fill="#00C0E1" d="M168.977,72.786c-0.254,0.354-0.528,0.686-0.815,1.004C168.452,73.468,168.725,73.134,168.977,72.786z"/>
	<path fill="#00C0E1" d="M170.008,71.027c0.088-0.187,0.17-0.373,0.248-0.564C170.18,70.652,170.098,70.838,170.008,71.027z"/>
	<path fill="#00C0E1" d="M166.925,57.303c0.163,0.133,0.315,0.272,0.47,0.411C167.244,57.574,167.088,57.434,166.925,57.303z"/>
	<path fill="#00C0E1" d="M4.621,75.881c-0.13-0.08-0.261-0.157-0.388-0.24C4.356,75.724,4.489,75.801,4.621,75.881z"/>
	<path fill="#00C0E1" d="M3.704,75.262c-0.13-0.098-0.262-0.193-0.389-0.298C3.438,75.069,3.572,75.165,3.704,75.262z"/>
	<path fill="#00C0E1" d="M2.862,74.57c-0.131-0.121-0.262-0.238-0.391-0.365C2.598,74.332,2.729,74.449,2.862,74.57z"/>
	<path fill="#00C0E1" d="M170.623,69.436c-0.051,0.17-0.106,0.339-0.168,0.507C170.516,69.775,170.573,69.607,170.623,69.436z"/>
	<path fill="#00C0E1" d="M170.887,68.375c-0.031,0.158-0.063,0.315-0.101,0.474C170.824,68.692,170.856,68.534,170.887,68.375z"/>
	<path fill="#00C0E1" d="M2.106,58.459c0.119-0.13,0.238-0.262,0.365-0.39C2.344,58.196,2.225,58.329,2.106,58.459z"/>
	<path fill="#00C0E1" d="M2.875,57.693c0.142-0.129,0.282-0.258,0.433-0.38C3.161,57.434,3.018,57.565,2.875,57.693z"/>
	<path fill="#00C0E1" d="M169.891,60.982c-0.033-0.064-0.07-0.119-0.104-0.18c0.078,0.147,0.152,0.295,0.223,0.445
		C169.967,61.16,169.934,61.07,169.891,60.982z"/>
	<path fill="#00C0E1" d="M169.203,59.818c0.095,0.139,0.176,0.279,0.261,0.422C169.378,60.096,169.294,59.955,169.203,59.818z"/>
	<path fill="#00C0E1" d="M166.012,56.629c0.185,0.122,0.365,0.253,0.538,0.383C166.373,56.882,166.197,56.752,166.012,56.629z"/>
	<path fill="#00C0E1" d="M3.717,56.999c0.166-0.122,0.331-0.245,0.504-0.36C4.048,56.752,3.882,56.875,3.717,56.999z"/>
	<path fill="#00C0E1" d="M167.766,58.06c0.137,0.137,0.268,0.279,0.396,0.424C168.031,58.34,167.903,58.197,167.766,58.06z"/>
	<path fill="#00C0E1" d="M165.033,56.051c0.202,0.108,0.399,0.223,0.593,0.34C165.43,56.273,165.233,56.158,165.033,56.051z"/>
	<path fill="#00C0E1" d="M4.637,56.38c0.185-0.11,0.37-0.22,0.562-0.32C5.01,56.159,4.825,56.268,4.637,56.38z"/>
	<path fill="#00C0E1" d="M168.528,58.9c0.111,0.139,0.22,0.282,0.324,0.426C168.747,59.182,168.639,59.037,168.528,58.9z"/>
	<path fill="#00C0E1" d="M170.887,63.897c0.041,0.204,0.08,0.411,0.108,0.618C170.966,64.308,170.928,64.102,170.887,63.897z"/>
	<path fill="#00C0E1" d="M171.057,65c0.02,0.197,0.033,0.396,0.043,0.595C171.09,65.397,171.073,65.2,171.057,65z"/>
	<path fill="#00C0E1" d="M170.256,61.81c0.07,0.171,0.137,0.344,0.199,0.518C170.393,62.156,170.328,61.983,170.256,61.81z"/>
	<path fill="#00C0E1" d="M170.623,62.836c0.058,0.196,0.112,0.392,0.163,0.589C170.735,63.227,170.68,63.031,170.623,62.836z"/>
	<path fill="#FF938A" d="M170.456,69.943c0.059-0.17,0.113-0.337,0.168-0.507c0.057-0.196,0.113-0.392,0.163-0.59
		c0.038-0.156,0.073-0.314,0.101-0.473c0.041-0.204,0.08-0.411,0.108-0.618c0.026-0.161,0.041-0.323,0.06-0.485
		c0.02-0.197,0.035-0.396,0.045-0.596c0.008-0.179,0.01-0.359,0.01-0.54c0-0.18-0.002-0.359-0.01-0.54
		c-0.01-0.198-0.028-0.397-0.045-0.595c-0.019-0.163-0.035-0.324-0.06-0.486c-0.029-0.206-0.067-0.411-0.108-0.617
		c-0.031-0.158-0.063-0.315-0.101-0.474c-0.047-0.196-0.101-0.393-0.163-0.589c-0.051-0.17-0.105-0.339-0.168-0.507
		c-0.062-0.174-0.129-0.347-0.199-0.518c-0.076-0.189-0.16-0.377-0.248-0.564c-0.07-0.15-0.143-0.298-0.223-0.445
		c-0.102-0.191-0.21-0.378-0.321-0.562c-0.085-0.143-0.17-0.284-0.261-0.422c-0.109-0.17-0.232-0.331-0.352-0.492
		c-0.104-0.144-0.213-0.287-0.324-0.426c-0.115-0.144-0.239-0.279-0.366-0.416c-0.127-0.144-0.259-0.287-0.396-0.424
		c-0.121-0.119-0.244-0.233-0.371-0.348c-0.155-0.139-0.308-0.278-0.471-0.411c-0.121-0.101-0.248-0.193-0.375-0.289
		c-0.173-0.132-0.354-0.261-0.537-0.383c-0.125-0.085-0.255-0.161-0.384-0.24c-0.194-0.116-0.39-0.231-0.593-0.339
		c-3.16-1.665-7.047-1.834-10.48-0.098L134.44,66.133l20.115,10.184c1.653,0.836,3.412,1.232,5.143,1.232
		c1.988,0,3.936-0.535,5.654-1.511c0.121-0.07,0.246-0.137,0.367-0.21c0.389-0.24,0.768-0.501,1.127-0.787
		c0.055-0.044,0.104-0.095,0.16-0.14c0.309-0.258,0.605-0.533,0.889-0.825c0.094-0.095,0.18-0.191,0.271-0.287
		c0.287-0.318,0.561-0.648,0.812-1.004c0.028-0.036,0.059-0.072,0.086-0.109c0.273-0.395,0.521-0.816,0.752-1.254
		c0.066-0.13,0.13-0.264,0.193-0.396c0.092-0.188,0.174-0.375,0.249-0.564C170.327,70.29,170.393,70.117,170.456,69.943z"/>
	<path fill="#FF938A" d="M15.698,76.316l20.08-10.181l-20.08-10.18c-3.438-1.741-7.336-1.57-10.498,0.102
		c-0.192,0.101-0.377,0.21-0.562,0.32c-0.14,0.085-0.279,0.168-0.416,0.259c-0.172,0.114-0.338,0.238-0.505,0.36
		C3.578,57.1,3.44,57.202,3.305,57.312c-0.149,0.122-0.289,0.251-0.432,0.38c-0.137,0.124-0.275,0.246-0.406,0.378
		c-0.126,0.127-0.242,0.259-0.363,0.39c-0.135,0.148-0.27,0.295-0.396,0.45C1.604,59.037,1.506,59.168,1.41,59.3
		c-0.129,0.171-0.257,0.345-0.375,0.525c-0.086,0.129-0.165,0.262-0.245,0.393c-0.116,0.192-0.23,0.389-0.336,0.591
		c-0.075,0.139-0.143,0.281-0.21,0.424c-0.093,0.193-0.179,0.388-0.261,0.585c-0.067,0.165-0.131,0.333-0.191,0.501
		c-0.062,0.174-0.119,0.349-0.171,0.524c-0.058,0.189-0.108,0.381-0.158,0.574c-0.039,0.161-0.075,0.323-0.108,0.486
		c-0.039,0.202-0.076,0.404-0.104,0.606c-0.023,0.166-0.042,0.329-0.059,0.496c-0.021,0.196-0.034,0.394-0.045,0.589
		c-0.01,0.182-0.01,0.362-0.01,0.541c0,0.18,0.002,0.36,0.01,0.541c0.011,0.197,0.026,0.394,0.045,0.59
		c0.016,0.166,0.033,0.328,0.059,0.495c0.029,0.204,0.064,0.406,0.104,0.607c0.035,0.163,0.068,0.324,0.108,0.486
		c0.048,0.191,0.101,0.383,0.158,0.573c0.052,0.177,0.108,0.352,0.171,0.525c0.061,0.168,0.124,0.336,0.191,0.501
		c0.082,0.197,0.17,0.391,0.261,0.585c0.067,0.143,0.137,0.285,0.21,0.424c0.105,0.202,0.22,0.396,0.336,0.589
		c0.082,0.135,0.16,0.267,0.245,0.396c0.118,0.179,0.245,0.351,0.373,0.52c0.099,0.135,0.196,0.268,0.303,0.396
		c0.124,0.152,0.256,0.297,0.388,0.442c0.121,0.135,0.243,0.271,0.373,0.4c0.127,0.126,0.26,0.245,0.391,0.365
		c0.148,0.134,0.295,0.267,0.449,0.395c0.127,0.104,0.258,0.201,0.389,0.299c0.173,0.129,0.347,0.258,0.527,0.377
		c0.127,0.085,0.258,0.163,0.389,0.24c0.193,0.117,0.391,0.233,0.593,0.34C8.375,77.888,12.266,78.054,15.698,76.316z"/>
	<path fill="#FFAEA7" d="M85.067,158.126c-1.769,0-3.537-0.412-5.159-1.232l-74.53-37.784c-5.622-2.852-7.868-9.717-5.018-15.34
		c2.848-5.622,9.716-7.87,15.339-5.021l69.373,35.168l69.481-35.171c5.625-2.845,12.491-0.595,15.334,5.028
		c2.846,5.623,0.594,12.492-5.029,15.339l-74.635,37.78C88.602,157.714,86.835,158.126,85.067,158.126z"/>
	<path fill="#FFAEA7" d="M85.067,199.304c-1.769,0-3.537-0.41-5.159-1.232l-74.53-37.783c-5.622-2.85-7.868-9.719-5.018-15.34
		c2.848-5.623,9.716-7.867,15.339-5.021l69.373,35.17l69.481-35.174c5.625-2.842,12.491-0.592,15.334,5.029
		c2.846,5.623,0.594,12.492-5.029,15.338l-74.635,37.783C88.602,198.896,86.835,199.304,85.067,199.304z"/>
</g>
</svg>
