<?xml version="1.0" encoding="utf-8"?>
<!-- Generator: Adobe Illustrator 17.0.0, SVG Export Plug-In . SVG Version: 6.00 Build 0)  -->
<!DOCTYPE svg PUBLIC "-//W3C//DTD SVG 1.1//EN" "http://www.w3.org/Graphics/SVG/1.1/DTD/svg11.dtd">
<svg version="1.1" id="Layer_1" xmlns="http://www.w3.org/2000/svg" xmlns:xlink="http://www.w3.org/1999/xlink" x="0px" y="0px"
	 width="130px" height="130px" viewBox="-12.254 -9.074 130 130" enable-background="new -12.254 -9.074 130 130"
	 xml:space="preserve">
<metadata><?xpacket begin="﻿" id="W5M0MpCehiHzreSzNTczkc9d"?>
<x:xmpmeta xmlns:x="adobe:ns:meta/" x:xmptk="Adobe XMP Core 5.5-c014 79.151739, 2013/04/03-12:12:15        ">
   <rdf:RDF xmlns:rdf="http://www.w3.org/1999/02/22-rdf-syntax-ns#">
      <rdf:Description rdf:about=""
            xmlns:dc="http://purl.org/dc/elements/1.1/"
            xmlns:xmp="http://ns.adobe.com/xap/1.0/"
            xmlns:xmpGImg="http://ns.adobe.com/xap/1.0/g/img/"
            xmlns:xmpMM="http://ns.adobe.com/xap/1.0/mm/"
            xmlns:stRef="http://ns.adobe.com/xap/1.0/sType/ResourceRef#"
            xmlns:stEvt="http://ns.adobe.com/xap/1.0/sType/ResourceEvent#"
            xmlns:illustrator="http://ns.adobe.com/illustrator/1.0/"
            xmlns:xmpTPg="http://ns.adobe.com/xap/1.0/t/pg/"
            xmlns:stDim="http://ns.adobe.com/xap/1.0/sType/Dimensions#"
            xmlns:xmpG="http://ns.adobe.com/xap/1.0/g/"
            xmlns:pdf="http://ns.adobe.com/pdf/1.3/">
         <dc:format>image/svg+xml</dc:format>
         <dc:title>
            <rdf:Alt>
               <rdf:li xml:lang="x-default">Print</rdf:li>
            </rdf:Alt>
         </dc:title>
         <xmp:MetadataDate>2019-04-04T18:03:56+09:00</xmp:MetadataDate>
         <xmp:ModifyDate>2019-04-04T18:03:56+09:00</xmp:ModifyDate>
         <xmp:CreateDate>2019-04-04T18:03:55+09:00</xmp:CreateDate>
         <xmp:CreatorTool>Adobe Illustrator CS6 (Macintosh)</xmp:CreatorTool>
         <xmp:Thumbnails>
            <rdf:Alt>
               <rdf:li rdf:parseType="Resource">
                  <xmpGImg:width>244</xmpGImg:width>
                  <xmpGImg:height>256</xmpGImg:height>
                  <xmpGImg:format>JPEG</xmpGImg:format>
                  <xmpGImg:image>/9j/4AAQSkZJRgABAgEASABIAAD/7QAsUGhvdG9zaG9wIDMuMAA4QklNA+0AAAAAABAASAAAAAEA&#xA;AQBIAAAAAQAB/+4ADkFkb2JlAGTAAAAAAf/bAIQABgQEBAUEBgUFBgkGBQYJCwgGBggLDAoKCwoK&#xA;DBAMDAwMDAwQDA4PEA8ODBMTFBQTExwbGxscHx8fHx8fHx8fHwEHBwcNDA0YEBAYGhURFRofHx8f&#xA;Hx8fHx8fHx8fHx8fHx8fHx8fHx8fHx8fHx8fHx8fHx8fHx8fHx8fHx8fHx8f/8AAEQgBAAD0AwER&#xA;AAIRAQMRAf/EAaIAAAAHAQEBAQEAAAAAAAAAAAQFAwIGAQAHCAkKCwEAAgIDAQEBAQEAAAAAAAAA&#xA;AQACAwQFBgcICQoLEAACAQMDAgQCBgcDBAIGAnMBAgMRBAAFIRIxQVEGE2EicYEUMpGhBxWxQiPB&#xA;UtHhMxZi8CRygvElQzRTkqKyY3PCNUQnk6OzNhdUZHTD0uIIJoMJChgZhJRFRqS0VtNVKBry4/PE&#xA;1OT0ZXWFlaW1xdXl9WZ2hpamtsbW5vY3R1dnd4eXp7fH1+f3OEhYaHiImKi4yNjo+Ck5SVlpeYmZ&#xA;qbnJ2en5KjpKWmp6ipqqusra6voRAAICAQIDBQUEBQYECAMDbQEAAhEDBCESMUEFURNhIgZxgZEy&#xA;obHwFMHR4SNCFVJicvEzJDRDghaSUyWiY7LCB3PSNeJEgxdUkwgJChgZJjZFGidkdFU38qOzwygp&#xA;0+PzhJSktMTU5PRldYWVpbXF1eX1RlZmdoaWprbG1ub2R1dnd4eXp7fH1+f3OEhYaHiImKi4yNjo&#xA;+DlJWWl5iZmpucnZ6fkqOkpaanqKmqq6ytrq+v/aAAwDAQACEQMRAD8A9U4q7FXYq7FXYq7FXYq7&#xA;FXYq7FXYq7FVG7vLWzgae6mSCFPtSOQo/HBKQAss8eOUzURZYJr35qQpyh0aH1G6fWpgQvzVOp+m&#xA;nyzBya3pF32l7DJ3ymvIfrYFqOs6rqUhkvrqScnfizfCP9VR8I+gZhTySlzLv8Onx4xUAAo2d/e2&#xA;UoltJ5IJB+1GxU/TTIxkRyZ5MUZipAFnGg/mncxcYdZi9dOn1qIAOP8AWTZT9FMzcesI2k6PVdhx&#xA;O+I15F6BpmsaZqkHrWFwk6ftBT8S1/mU/Ev0jM6GSMhYLz2bTzxGpikZk2l2KuxV2KuxV2KuxV2K&#xA;uxV2KuxV2KuxV2KuxV2KuxV2KuxV2KuxV2KuxVSuru1tIGnupUhhT7UjkKo+k4JSAFlnDHKZqIss&#xA;F17807aLlDo0Xrv0+tSghB/qpsx+mmYWTWDlF3ul7Dkd8pryDz/U9Y1PVJ/Wv7h53/ZDH4Vr2VR8&#xA;K/QMwJ5JSNkvQYdPDEKgKQeRbnYq7FXYqrWl5d2c63FrK0MyfZkQkH8MMZEGwwyY4zFSFhneg/mp&#xA;MnGHWYfVXp9ahADfNk6H6KfLM3HreknQ6rsMHfEa8j+tn+m6tpupwevY3CTx9+J3HsyndT88z4TE&#xA;hYLoM2CeI1MUUXkml2KuxV2KuxV2KuxV2KuxV2KuxV2KuxV2KuxV2KuxV2KuxVSubq2tYWnuZUhh&#xA;T7UjkKo+k4CQNyyhCUjURZYPr35p2kPKHR4vrEnT6zKCsY/1V2ZvppmFk1gH0u90vYcpb5DQ7hze&#xA;f6rrWqarN61/cPMw+ypNFX/VUfCMwZ5JS5l6HBpseIVAUgcg3OxV2KuxV2KuxV2KuxVXs728sp1n&#xA;tJngmXo6Eqflt2wxkQbDDJijMVIWGeaB+acihYNai5jp9bhADf7NOh+a/dmdi1nSTodX2GDviPwP&#xA;62f6fqmn6jAJ7G4S4iPUodwfBh1U+xzOjMSFh5/NgnjNTFFE5JqdirsVdirsVdirsVdirsVdirsV&#xA;dirsVdirsVU7i4t7aFpriRYYUFXkchVA9ycBIG5ZQgZGgLLCde/NKxt+UOkRfWpRt9YkqsQPsNmb&#xA;8Mw8msA+nd3ml7DlLfIeEd3V57q2uarq0/rX9w0xH2E6Iv8AqqNhmBPJKR3L0ODTY8QqApAZBvdi&#xA;rsVdirsVdirsVdirsVdirsVdiqIsr+9sZxcWc7wTL0dCQaeB8R7YYyMTYYZcUcgqQsM80D81HBWD&#xA;WouQ6fW4RQ/N4/8Amn7szsWt6SdBquw+uI/A/r/Wz+w1Gw1CAT2U6TxH9pDWh8COoPsczozEhYef&#xA;y4Z4zUhRRGSa3Yq7FXYq7FXYq7FXYq7FXYq7FVk88EETTTyLFEgq8jkKoHuTgJA5soxMjQFlhWvf&#xA;mjp9tyh0qP63MNvXeqxA+3Rm/D55h5NYB9O7u9L2JOW+Q8I7uv7Hnmr69qurzerf3DS0NUj6Iv8A&#xA;qoNhmBPJKR3L0Wn0uPCKgKS/IN7sVdirsVdirsVVLe2uLmZYLeNpZnNEjQFmJ9gMIBJoMZzERZNB&#xA;nOg/lbdzcZtYl+rx9fq0RDSH/WbdV/HMzHoyfqdHqu3Ix2xiz3nkitd/KpCGm0abiev1Wc1B/wBV&#xA;/wDmr78nk0X81p0vbvTKPiP1MC1DS9Q06cwX1u9vKOgcbEeKnow9xmDKBiaLv8OeGQXA2ELkW12K&#xA;uxV2KuxV2Komw1G/0+cT2U7wSj9pDSo8COhHsclGZibDXlwwyCpCwz3QfzU+zDrUPt9bhH4vH/zT&#xA;92ZuPW9JOg1XYfXEfgf1s9sNRsdQtxcWU6Twn9tDWh8COoPsczozEhYdBlwzxmpCiiMk1uxV2Kux&#xA;V2KuxV2KrZZooY2lmdY4kFXdyFUDxJO2AmkxiSaG5YXr35n6ba8odLT67ONvWNVhB/4k30UHvmJl&#xA;1gH07u70vYk575PSPt/Y871fX9X1eX1L+4aUA1SPpGv+qg2zXzyylzL0Wn0mPCKgK+9Lsg5DsVdi&#xA;rsVdirsVVLe3uLmZYbeNppnNEjQFmJ9gMIBOwYzmIiyaDN9B/K2+uOM2ryfVYjv9Xjo0pHud1X8c&#xA;zMejJ+rZ0mq7cjHbGOI9/R6DpOhaVpMPpWFusNRR36u3+s53OZ8McY8g89n1WTKbmbR+Tcd2KqF9&#xA;p9lf27W95Ak8LdUcV+keB9xkZREhRbMWWWM3E0WA69+Vf2ptFm9/qkx/BJP+avvzByaLrF3+l7c6&#xA;ZR8R+pgV/p1/p85gvYHglH7LilR4g9CPcZhSgYmi7/FmhkFxNhDZFsdirsVdirsVdiqK0/VNQ06c&#xA;T2Nw9vKOpQ7EeDDow9jkozMTYas2CGQVMWGfaD+aiNxh1qHien1uEVHzePr/AMD92Z2PW9JOg1XY&#xA;Z54j8D+tnllf2V9ALiznSeFujoQRXwPgfbM2MhIWHQ5cUsZqQoq+Sa3Yq7FVss0UMTyzOscUYLPI&#xA;5Cqqjckk7AYk0kC2AeYfzk0CyDw6UDqFwNhKAVhB+Z4lvo+/Nbm7ShHaO5dzpexpz3yekfa881Tz&#xA;tea3Lyv7pytapCRxjX5Kvw/Sd8wJazjO5ei0+lxYRUBXn1UAQRUGo8cLlOwq7FXYq7FXYqvggmnl&#xA;WGCNpZXNEjQFmJ9gMQCeSJSERZNBm2g/lfqFzxm1WT6nCd/RSjSke/VV/H5ZmY9GT9WzpNV23CO2&#xA;McR7+n7XoWkaBpOkRenYW6xEijydZG/1mO+Z+PFGHIPO6jV5MxuZv7kwyxx3Yq7FXYq7FXYqh7/T&#xA;rDUIDBewJPEf2XFaHxB6g+4yMoCQotmLNPGbiaLAdf8AysYcptElr3NpMd/kj/8ANX35g5dH1i9B&#xA;pO3OmUfEfpH6mBXthe2M5t7yB4Jl6o4INPEeI98wZRMTRd/iyxyC4mwh8DN2KuxV2KuxV2Kt2nmW&#xA;XSLn1rK6eGdevpGoNOzD7J+RyA1Igdi05sMMgqQsM78v/nXp0nGHWoWhbYfWolqvzZASR9Fflmbi&#xA;7UidpPP6rsQjfEfgf1vRtO1Kw1K0S7sJ0ubZ/syRmo+R8D7HNnCYkLBsOiyY5QkYyFEInJMHhn5s&#xA;+crjU9Yl0e1kK6bYsY5VU7SzKfiLeyH4QPpzQdoaoylwD6R9r1XZOhEIjJL6jy8h+15/msd07FVa&#xA;C7uID+7bb+U7jJxmY8lTS31aCTaX923j+z9+ZMM4PNNo4EHcZcl2FV8UMs0ixQo0krmiIgLMT4AD&#xA;fEC0SkALOwZpoP5Yald8ZtUf6lAd/SFGmI/4iv01+WZmPRk/Vs6XVdtwhtj9R+z9r0PR/L2kaPD6&#xA;dhbrGT9uU/FI3+sx3+jpmfjxRhyDzuo1eTMbmf1JjljjOxV2KuxV2KuxV2KuxV2KuxVDahpen6jA&#xA;YL63S4iPQONwfFT1U+4yMoCQotuHPPGbgaLAde/Kt15TaLNyHX6pMaH5JJ0/4L78wcmi6xd/pe3B&#xA;yyj4j9TAryyvLKdoLuF4Jl6o4Kn579swZRINF3+PLGYuJsKGBm7FULc6lbw1Feb/AMq/xOUzzAIt&#xA;K7nUbieorwT+Vf4nMaeUyQhcrV2Ksh8leb73y1qyXEbM1lKQt7bfsuleoH869VP8MytJqTil/R6u&#xA;Br9EM8P6Y5H9D6M+u2v1P676q/VPT9b1v2fT48uXy47509ireLo3T5UllklleWQ8pJGLOx6kk1Jz&#xA;jybfQgKFBbgS7FXYq7FURaXN3G4SGrE9I6Fq/IZOOQxW6Z15Z8vrqEyfpaf9GxHsRyZvavRPm2XY&#xA;NbhlLhlLh+75uBqtcYR9A4i9e0Ty/oukwAafAoLAVuPtSOPEv/TbOkxY4RHpeU1Ory5T6z8OnyTP&#xA;LXFdirsVdirsVdirsVdirsVdirsVdirsVdiqE1LSdN1OD0L63SePtyG491YbqflkZwEhRDdhzzxG&#xA;4Gi8q82+U9OsJGOkXf1lq/FaMQSvykHw/Qd857WanBilQlZ+74vUaLtGcx+8jXn+x51qFxqCyGGd&#xA;GgI6x0I/28wzmM+XJ2okJbhA5BLsVdirsVdir3D61c/8qV9Xm3qfUfS5d+HP06fLhtnRcR/K/wCa&#xA;8fwj87/yU/S8z/MDy3NoXmW5h40tbhmns2HQxuSeP+wPw5p9ZgOPIe48nouz9UM2IH+IbH8ebG8x&#xA;XOdiraqzsFUFmOwUbk4qSn+meT724pJdn6tF/L1kP0dvpzFyaqI5blxcmqA5bsr0/SbCwWltEFbv&#xA;Id3P0nMDJllPm4M8spc0ZlbWj9N1zUtOI+ryn0+8L/Eh+jt9GZul7Qy4PpO3d0acunhk5hlul+cd&#xA;PuqR3X+izHarGsZ/2Xb6c6fSduYsm0/RL7Pn+t1ebQzjvHcMgVlYBlIKncEbgjN0De4cF2FXYq7F&#xA;XYq7FXYq7FXYq7FXYq7FUo1TzRplhVOfrzj/AHVGa0P+U3QZq9X2vhw7XxS7h+kuVh0c5+QYfqnm&#xA;bU9QqjP6MB/3THsCP8o9TnL6vtXNm2J4Y9w/G7tcOkhDzKVZrHJQ95Y2l5F6VzEsidq9R7g9Rk4T&#xA;MTYZxmYmwxjU/JcqVksH9Revovs30N0P05m49YD9TmY9WP4mNz288EhimjaOQdVYUOZgIO4cwSBF&#xA;hTwpdiqM0jSrzVtSt9Ps0MlxcOEQDsO7H2UbnLMWIzkIjq0588cUDKXIPpP/AA/Z/wCGv0Bt9V+q&#xA;/VOXEdOHDnT+avxfPOq8IcHB0qnhvGlx8f8AFd/Hm7zF5a0jzBY/U9Si5oDyilU8ZI26ckben6sG&#xA;bDHJGpJwaieKXFE0Xk2u/ktrdmWl0y4S+txuFYFJQP8AVHIN9GaHU9nzxi4+oeXP5fqek0/bWOW0&#xA;xwn7GP2/ka89Sl3MkQB+JUqzfLcLTNLPVgbAG3OlrB0DJNP0fT7BaW8QD95W3c/T/TMLJmlPm4c8&#xA;spc0blTW7FXYq7FXYqmGma7qWnH9xJWLvC/xIfo7fRmdpO0MuD6Tt3Hk0ZtPDJzG7LtL84add0ju&#xA;P9FmP8xqhPs3b6c6fSdt4sm0/RL7Pn+t1ebQzjuNwnwIIBBqDuCM3QNuE7FXYq7FXYq7FXYq7FUp&#xA;1XzPpmn1Qt69wP8AdUe9D/lHoM1ms7Ww4Nr4pdw/S5WHSTnvyDENU80anf1Tn6EB/wB1R7VH+U3U&#xA;5y+r7WzZtr4Y9wdph0kIeZSjNW5TsVdirsVdiqHvLC0vI/TuYlkXtXqPkeoycMko8izjMxOzGr3y&#xA;Q3ItZTjiekctdv8AZCv6szIawfxBy4azvCYaL+T/AJl1Bg87xWdsf92vyZiP8lKLX7xm40ujyZd6&#xA;4Y95cfP2xihy9RereUfImi+WYmNqDNeyDjNeSU5kfyqBsq17D6a5v9NpY4htz73ndXrZ5z6uXQMj&#xA;zJcN2KuxVAaloem6iD9YiHqdpk+Fx9Pf6cwtV2fiz/UN+8c2/FqJ4+RYjqnk7ULWslr/AKVCOyik&#xA;g/2Pf6M5jV9h5ce8PXH7fl+p2mHXQltLYpAQQSCKEbEHNKRTmuwK7FXYq7FXYq7FUx0zXtS05gIZ&#xA;OUPeF90+gdvozO0naOXB9J9PceTRm00MnMbsu0vzfpt5RJz9VnPZz8BPs39c6jSdtYsu0vRLz5fN&#xA;1ebQzjuNwnoIIqNwehzcuE7FXYq7FUq1TzNpmn1Rn9acf7pj3IP+UegzW6vtXDh2J4pdw/Gzk4dJ&#xA;OfkGIap5p1O+qit9XgP+64zQkf5TdTnL6vtjNm2B4Y9w/W7XDo4Q8yk+apynYq7FXYq7FXYq7FU3&#xA;0vyvqd/R+HoQH/dsm1R/kr1ObTSdk5s29cMe8uLm1cIeZZdpfljTNP4uF9a4H+7ZN6H/ACV6DOo0&#xA;fZOHDvXFLvP6HV5tXOe3IJvmzcV2KuxV2KuxV2KuxVL9T0HTdRBM8VJe0yfC/wB/f6cwdX2dhz/U&#xA;N+8c/wAe9vxamePkdmI6p5P1G0rJb/6VCP5BRwPde/0ZzGr7Ey494euP2/L9TtMOuhLY7FISCCQR&#xA;QjYg5pSKc12KuxV2KuxV2KuxVMdM8wanpxAhk5wjrC+6/R4fRmfpO0s2D6Tce48mjNpoZOY3Zhpf&#xA;m3TL2iSn6rOf2ZD8JPs/T76Z1Ok7aw5dpeiXny+bqs2inDcbhX1PzJpengq8nqzD/dMe5+k9Blur&#xA;7Vw4dibl3Bhh0s5+QYjqnmvU76qI31aA/wC64zuR/lN1zmNX2xmzbD0x7h+t2mHRQhvzKS5qXLdi&#xA;rsVdirsVdirsVTXS/LOp6hR1T0YD/u6TYEf5I6nNnpOys2bcDhj3n8buNm1cIeZZhpflfTLDi5T1&#xA;7gf7tkFaH/JXoM6jR9kYcO9cUu8/oDqs2snPyCb5tHFdirsVdirsVdirsVdirsVdirsVS7U/L+m6&#xA;iC00fGY9Jk2f6fH6cwNX2bhz7yHq7xzcjDqZ4+R2YjqnlDUrOrwD61AO6D4wPdf6ZzGr7FzYt4+u&#xA;Plz+TtMOuhLY7FIiCDQ7EdRmmcx2KuxV2KuxV2KuxV2KuxV2KuxV2KuxV2KpppflvU9QIZE9KA/7&#xA;uk2FP8kdWzZaPsvNn3AqPefxu42bVQh5lmGl+VdMsaOy/WJx/uyQVAP+SvQZ1Gk7Hw4dyOKXef1O&#xA;rzayc/IJxm1cR2KuxV2KuxV2KuxVJPMvme20aJVC+teSCsUNaADpyb2/Xi4Gt10cA75HowC882eY&#xA;LpyzXjxA9EhPpgf8DQ/ecLzuTtDNM/UR7tnWfmzzBauGW8klA6pMTID/AMFU/ccVx9oZoH6iffuz&#xA;DRvP2n3ZWK+X6pMdudaxE/Pqv0/fgd1pu1oT2n6T9jKUdHUOjBlYVVgagj2OLtgQdw3il2KuxVLd&#xA;U8vabqILSx8Ju00ezfT4/Tmv1fZuHP8AUKl3jn+1yMOpnj5cmIap5S1Oyq8Q+tQD9uMfEB7p1+6u&#xA;cvq+xc2LePrj5c/k7TDrYT2OxSTNQ5jsVdirsVdirsVdirsVdirsVTTS/Lmp6hR409OA/wC7pNlp&#xA;/k9zmx0nZebPuBUe8/jdx82qhDnzZdpflTTLKjuv1mcftyD4Qf8AJXp9+dRpOxsOHc+uXn+p1WbW&#xA;znsNgnWbZxHYq7FXYqx/WPOukafyjjb63cj/AHXERxB/yn6fdXF12p7TxY9h6peX62F6j50168cl&#xA;ZzbRfsxw/DT/AGX2vxwujzdp5pnnwjyQtv5m1+B+aX8zHwkcyD7n5DFphrs0TYkfv+9m3lfzmmpy&#xA;CzvVWG8P92y7JJTtv0bA73Q9pDKeGW0vvZRi7Z43rGoPqGp3F25JEjngD2QbKPoGF4nU5jkyGR6o&#xA;LFodirsVTHSvMGq6W3+iTER1q0D/ABRn/Y9voxcnT6zJi+k7d3RnGj+ftNu+MV6Pqc525E1iJ/1v&#xA;2fp+/A77TdrY57T9J+xk6srKGUhlIqCNwRi7UG28UuxV2KpZqnl3TNRBaSP05z0nj2avv2b6c1+r&#xA;7Mw59yKl3j8buRh1U8fLkxDVPKmp2VXRfrMA/bjG4H+UvXOW1fY2bDuPXHy/U7XDrYT2OxSXNS5b&#xA;sVdirsVdirsVTPTPLup6hRoo/ThP+7pPhX6O5+jNhpOzM2fcCo95/G7j5tVCHM7su0vylpllR5R9&#xA;anH7Ug+EH2Tp99c6jSdi4cW8vXLz5fJ1ebWznsNgnebdw3Yq7FXYqkOsec9H07lGr/Wrkf7qiIIB&#xA;/wAp+g/E4uv1PaWLFt9UvJg2s+bdX1PlG8noWx/3RFUAj/KPVv1YXQantDLl2JqPcElxcF2KuxVd&#xA;HI8ciyRsVkQhkYdQQagjFIJBsPW/0x/zrf6VoOf1b1ePbnx6f8Fgex/M/uPE/o38Xk91byW1zLby&#xA;CjwuyN81NDhePnAxkYnopYsXYq7FXYq7FUz0nzFq2lsPqsx9KtTA/wAUZ+jt9GLlafWZMX0nbu6M&#xA;30fz5pd5xjvP9DnO1WNYyfZu304HfabtbHPaXpP2MmVlZQykMpFQRuCMXaA23il2KuxVK9U8t6Zq&#xA;FWeP0pz/ALuj2NfcdDmu1fZeHPuRUu8fjdycOqnDzDD9U8ranY1dV+sQD/dkYqQP8peozltX2Pmw&#xA;7gcUe8fqdrh1kJ+RSfNU5TsVTHTPL+p6iQYY+EJ6zP8ACv0eP0Zn6Ts3Nn+kVHvPJozamGPmd2X6&#xA;V5R06zpJMPrU4/acfAD7L/XOo0fYuLFvL1y8+XydVm1s57DYJ5m4cN2KuxV2KpHrHnDR9N5R8/rN&#xA;yP8AdMRBof8AKboP14uBqe0cWLa+KXcGC6z5u1fUyyF/q9sdvQiJAI/ym6t+rC8/qe0cmXa6j3BJ&#xA;MXBdirsVdirsVdir1H9Hz/4I+qU/ffVK8O/Ljz4/Ptger8E/lOHrwpZ508pz3Up1LT05ykf6RAPt&#xA;NTYMo7mnUYXF7T7PMz4kOfUMCZWVirAqwNCDsQcXniKaxV2KuxV2KuxV2KpppHmTVtKIFtNyhrvb&#xA;yfFGfo7fRi5en1uTF9J27ujONH896Ve8Y7r/AEO4O3xmsZPs/b6cDvtN2rjntL0n7PmyUEMAQag7&#xA;gjoRi7R2KuxV2KpfeeX9HvHLzWy+oerrVCT78SK/TmDn7NwZTcoi/l9zfDU5I7Aqdv5Y0O3cOlqG&#xA;YdC5Zx9zEjIYuydPA2I/PdlLV5JdU0AAFBsB0GbFxnYq7FXYqkms+btI0wMhk+sXI/3REakH/Kbo&#xA;v68XA1PaOPFtdy7gwXWPOGsalyj5/VrY/wC6YiRUf5TdT+rC6DU9o5cu18Me4JHi4DsVdirsVdir&#xA;sVdirK/KXlC4u5472+jMdkhDJG4oZSNxsf2f14u37P7OlMicxUfv/Y9GwPTOxVLdW8u6Tqin6zCB&#xA;LSgnT4ZB9Pf6cXF1Gjx5fqG/f1YPrPkTU7INLaf6ZbjeiikgHunf6MLodT2VkhvH1D7WMkFSQRQj&#xA;Yg9QcXVNYq7FXYq7FXYq7FU10fzNq2lELby84K728nxJ9HdfoxcvTa7Jh+k7dzOdH886TfcY7g/U&#xA;7g7cZD8BPs/9aYHf6btXHk2l6T9nzZGCCAQag9Di7N2KuxV2KuxV2KpLrPm3SNL5Ru/r3I/3RFuQ&#xA;f8o9F/Xi4Op7Qx4tibl3Bg2sec9Y1HlGr/VbY/7qiJBI/wAp+p/AYXQantLLl2+mPkkOLr3Yq7FX&#xA;Yq7FXYq7FU80fyfrGpcZOH1a2P8Au6UEVH+SvU/qxc/TdnZcu9cMe8s50fyfo+m8ZOH1m5H+7pQD&#xA;Q/5K9B+vA7/TdnYsW9cUu8p5i57sVdirsVdiqV6v5a0nVATcQ8Zu1xH8Mg+nv9OLiajRY8v1Dfv6&#xA;sH1jyJqtlyktf9Mtxv8AAKSAe6d/owuh1PZWSG8fUPt+TGyCCQRQjqMXVtYq7FXYq7FXYq7FU20f&#xA;zPq2lELDL6luOtvJVk+juv0YuZptdkxcjt3FnWj+d9Iv+MczfU7g7cJD8BP+S/T76YHf6btTHk2P&#xA;pl5/rZD1xdk7FUm1jzZpGl8kkk9a4H+6IqMwP+Uei/Ti4Wp7QxYtibl3Bg+seddX1DlHG31S2P8A&#xA;uuInkR/lP1P0Uwug1PaeXJsPTHy/Wx/F1zsVdirsVdirsVdiqd6P5R1jU+LrH6Fsf93y1AI/yR1b&#xA;9WLnabs7Ll3qo95Zzo3k3SNNKyFfrNyP93SgUB/yV6D9eB3+m7Nx4t/ql3lPcXYOxV2KuxV2KuxV&#xA;2KuxV2KpVq/ljSNUBaeLhOelxH8L/T2b6cXD1Ghx5eY37wwfWPI2rWPKS3H1y3G/KMfGB7p/SuF0&#xA;Op7KyY94+ofb8mOEEEgihHUYusaxV2KuxV2KuxV2Kpvo/mnV9LKpFL6tuP8Aj3k+Jaf5PdfoxczT&#xA;a/Ji5G49xRWsedtX1ANFEfqludjHGTyI/wAp9j91MW7U9qZMmw9MfL9bHsXWuxV2KuxV2KuxV2Kp&#xA;zo/lPV9U4vHH6Nuf93y1VSP8kdW+jFzdN2fly7gVHvLOtG8maRpwWR0+tXI39WUVAP8Akp0H4nA9&#xA;BpuzceLc+qXn+pPsXYOxV2KuxV2KuxVB6tq9jpVqbm8k4J0VRuzN4KO+XYcEskqiyjEyNBg97+Zl&#xA;+zkWVrHFH2MtXan0FQM3OPsiIHqJPuckacdXWX5magsgF7axSxdzFyRvnuWBxydkQI9JIPmp046M&#xA;y0jzFpOqrW0nBlpVoH+GQf7E9fmNs1GfS5MX1Dbv6OPLGY80yzHYOxV2KpRrHlbSNUq80Xp3B/4+&#xA;I/hf/Zdm+nFw9ToMeXcipd4YPrHkjV7DlJCv1y3G/OMfGB/lJ1+6uF0Gp7LyY9x6o+X6mO4utdir&#xA;sVdirsVdirsVdirsVdirsVdiqcaN5V1bVCGij9K3P/HxJULT/J7t9GLm6bQZMvIVHvLOdH8laRp/&#xA;GSRfrdyP92SgcQf8lOn31wO/03ZmLHufVLz/AFMgxdi7FXYqhdR1XT9Oh9W9nWFOwY/E3+qo3P0Z&#xA;biwzyGoi2UYk8mF6j+ZsnMrp1qvAdJJ6kn/YKRT/AILNvi7IH8Z+TkR0/ehLb8y9YRx9Yt4Jk7hQ&#xA;yN9Bqw/DLZ9k4zyJCTpwzPQPM2na1ETbkxzoKyW7/aA8R4j3zUanSTwnfl3tE8Zim2YrW8g816zL&#xA;qmsTSFq28LGK3XsEU0r/ALLrnV6LAMeMDqebn44cISbMtsdiq5HdGDoxV1NVYGhBHgRgItWU6L+Y&#xA;Wp2fGK+H12AbciaSgf637X0/fms1HZcJ7x9J+xongB5M80nzBpWqpWznDPSrQt8Mg+an9YzS59NP&#xA;EfUHGlAx5pjmOwdirsVSfWfKuk6rV5Y/SuT/AMfEVAxP+UOjfTi4Wp0GPLuRUu8MG1jyVq+n8pI1&#xA;+t2w/wB2RA8gP8pOo+iuF0Gp7My49x6o+X6mP4uudirsVdirsVdirsVdiqb6P5W1fVKPDF6duf8A&#xA;j4lqq0/ye7fRi5mm0GXLuBQ7yznR/JGkWHGSZfrlwN+cg+AH/JTp99cDv9N2Xjx7n1S8/wBTIemL&#xA;snYq7FULqOqafp0PrXs6wp+zyO7U/lUbn6MtxYZ5DURbKMSeTCNa/MieTlFpUXop0+sSgF/9iu6j&#xA;6a5uNP2UBvM35ORDB3sNubq5upmmuZWmlbq7ksfxzbQgIigKDkAUpZNLsVROnX9xp97Fd27cZYm5&#xA;D3HdT7EbZXlxCcTE8ixlGxT2T9J2/wCif0nX/R/R+se/Hjyp885LwTx8HW6cDh3p4o6MjsjCjKSG&#xA;HgRtnYA27FbhV2KuxV2Kro5JI3V42KOpqrKSCD7EYCARRVlei/mHqVrxi1BfrkA259JQPn0b6fvz&#xA;WajsuEt4ek/Y0TwA8md6Tr2l6rHzs5w7Uq0R2kX5qf19M0mbTTxH1BxZQMeaYZQxdirsVSbWfKek&#xA;aoGd4/RuT/x8RUDV/wAodG+nFwdT2fjy7kVLvDBdY8maxp3KRU+tWw/3bECSB/lJ1H4jC6DU9m5c&#xA;W/1R8khxde7FXYq7FU20jyxq+qENBFwgPW4k+FPo7t9GLl6fQ5MvIbd5Zxo/kbSbHjJcD65cDflI&#xA;PgB9k/rXA7/TdlY8e8vUfs+TIwAAABQDoMXZuxV2Koa/1Ow0+H1rydYU7cjufZQNz9GWYsMpmoi0&#xA;xiTyYRrX5kSvyi0mL016fWZQC3+xToPp+7Nxp+ygN8h+AcmGn72G3V5dXcxmuZWmlbq7kk/jm3hC&#xA;MRURQcgADko5NLsVdirsVdir0/0Jf+Vd8KfF9T50/wAmnP8A4jnN8Q/N3/ScK/3nxY5578tzWd9J&#xA;qMCFrO5blIVH93IetfZjuM2HZ2rE48B+ofa3YclimJ5tG92KuxV2KuxV2Kr4pZYpFkido5FNVdSQ&#xA;wPsRgIBFFFMs0X8xNQtuMWop9bhG3qiiygfqb6fvzV6jsuEt4ek/Y0TwA8mdaVrml6rFzspw5H24&#xA;zs6/NTv9PTNLm088ZqQcaUDHmj8oYuxV2KpLrHlHSNT5O0foXJ/3fFQEn/KHRv14uDqezsWXeql3&#xA;hhl95C163c+gi3UfZ0YKfpViPwrhdHl7JzRO3qCla+RvMU7hWgWBe7yOtB9Clm/DFjDsvPI8q97L&#xA;tG8jaXY0luf9MuB3cfuwfZN/xwO403ZWPHvL1S+z5MkAAAAFAOgxdo7FXYqh77UbGwhM15OkEfYs&#xA;dz7AdSfllmPFKZqItIiTyYTrX5kueUWkxcR0+syip/2KdPv+7Nxp+yeuQ/AOTDT97C7q8uruYzXM&#xA;rTSt1dySfxzbwhGIqIoOQAByUcml2KuxV2KuxV2Kpx5a8vXGs3yxgFbWMg3M3YL/ACg/zHtmJq9U&#xA;MUb/AIujXknwh676EXo+hwHo8eHDtxpSn3ZyvEbvq4NrnRJEZJFDowoysKgg9iDiCRuEMT1v8vNO&#xA;ug0unN9UnO/p7mIn5dV+j7s2en7UnHafqH2t8M5HNgmq6FqulycbyBkUmiyj4o2+TDb6OubvDqYZ&#xA;B6S5MZiXJL8vZuxV2KuxV2KuxVfDNNDIssLtHIpqroSrA+xGRlEEUUEMu0X8xb634xakn1qIbest&#xA;FlA9/wBlvwzV6jsqMt4bH7GieAHkznS9b0vVI+dlOshAq0fR1+anfNLm088ZqQcaUDHmjspYuxV2&#xA;KuxV2KuxVQvb+ysYTNdzJDEP2nNK+wHUn5ZPHjlM1EWUiJPJhOt/mQTWHSI6djcyjf8A2Cf81fdm&#xA;40/ZXXIfgHJhp+9hd5e3d5MZ7qZ5pT1dzU/IeAzcQxxgKiKDkAAclDJpdirsVdirsVdiqJsNOvr+&#xA;cQWcLTSHqFGw92PQD55XkyxgLkaYykBzZvov5bxJxl1aX1G6/VoiQv8Asn6n6PvzTajtUnbGPiXH&#xA;nqO5mdraW1pAsFtEsMKfZRBQZqJzMjZNlxySearkUOxV2KrZYopY2jlRZI2FGRgCpHuDhBINhbYl&#xA;rX5d6fc8pdOf6pMd/SNWiJ/Wv0fdm00/ak47T9Q+1vhnI5sE1TRNU0uThewNGCaLJ1Rvkw2zdYdR&#xA;DILiXKjMS5IHL2TsVdirsVdirsVVIJ54JVlgkaKVd1dCVYfIjIyiJCjuEEWy/RfzGvIOMWqR/WY+&#xA;nrpRZB8xsrfhmq1HZUTvA0e7o0TwA8mcaZrOmanF6llOstPtJ0df9ZTuM02bBPGakKcaUCOaNyli&#xA;7FVG8vbSygM91MsMS9Wc0+geJyePHKZqIspAJ5MJ1r8yftRaTF7fWZR/xFP6/dm40/ZPXIfgHIhp&#xA;+9hd7f3t9MZruZ5pT+05rT2A7D5Zt8eOMBURQckRA5IfLEuxV2KuxV2KuxVE2OnX1/MIbOB55O4U&#xA;bD3J6AfPK8mWMBcjSDIDmzXRfy2QcZdWl5Hr9WiNB/sn6/d9+afUdrdMY+Jcaeo7maWdlaWcIgtY&#xA;UhiHREFB8z4nNRPJKZuRsuOSTzVsgh2KuxV2KuxV2KuxVZNDDNG0UyLJGwoyOAyke4OGMiDYUFiW&#xA;tfl1Y3HKXTH+qynf0Wq0RPt+0v45tdP2rKO09x9rkQzkc2C6po2paXN6d7A0dfsv1Rv9Vhsc3WHU&#xA;QyC4lyYzB5IHLmTsVdirsVdirsVVILie3lWaCRopUNVdCQQfmMjKIkKO4QRbMdF/Me6i4xapH68f&#xA;T14wBIPmuyt+GanUdlRO8DXk0TwDoidZ/MlQDFpMNT0+sTDb/Yp/X7srwdk9ch+AYw0/ewq+1G+v&#xA;5jNeTvPJ2LHYewHQD5ZuMeKMBURTkiIHJDZYl2KuxV2KuxV2KoiysL2+mENpC80p/ZQVp7k9h88r&#xA;yZIwFyNBBkBzZpov5bfZl1aX3+rRH/iT/wBPvzUajtbpjHxLjT1HczWysbOygEFpCsMQ/ZQU38T4&#xA;n55p8mSUzcjZccyJ5q+QQ7FXYq7FXYq7FXYq7FXYq7FXYqsnggniaKeNZYm2ZHAZT8wclGRibGxS&#xA;DTENa/Lmzn5S6XJ9Wk6+g9WjPyO7L+ObXT9qyG0xY7+rfDOerBtT0fUtMl9K9gaIn7LdUb/VYbHN&#xA;zhzwyC4m3JjMHkgsuZOxV2KuxV2KuxV2KuxV2KuxV2KuxVXs7K7vJhBawvNKeiIKn5nwGQnkjAXI&#xA;0EEgc2aaL+W7ErNq8tB1+qxHf5M//NP35p9R2r0xj4lx56juZtZWFlYwiG0hSGIfsoKV9yepPzzT&#xA;5Mkpm5Gy4xkTzV8gh2KuxV2KuxV2KuxV2KuxV2KuxV2KuxV2KuxVTuLa3uYmhuI1lib7SOAwP0HJ&#xA;RmYmwaKQaYfrX5cWsvKXSpPQfr6EhJjPybdl/HNrp+1ZDaYvzb4Zz1YPqWkajpsvpXsDQt+yx3Vv&#xA;9Vhsc3OLPDILibcmMgeSDy5k7FXYq7FXYq7FXYq7FVa1s7q7mENtE00rdEQEn8MhOcYi5GggkDmz&#xA;TRPy3dgs2rScB1+rREE/7J+n3ffmo1HavTGPi489R3M2sdOsbCEQ2cCQR9wo3PuT1J+eafJllM3I&#xA;24xkTzRGVodirsVdirsVdirsVdirsVdirsVdirsVdirsVdirsVdirsVU7m1t7qFobiJZom+0jgMD&#xA;9+ShMxNg0Ug0w3Wvy3gk5S6VL6L9fq8pJT/Ytuw+mubbT9qkbTF+bkQ1HewjUdK1DTpvRvYGhfty&#xA;Hwt/qsNj9GbnFmhkFxNuRGQPJCZaydirsVdiqta2lzdzLBbRNNM32UQVOQnMRFk0EEgc2ZaL+W8r&#xA;8ZdWl9Nev1aIgt/sn6D6PvzUajtUDbGPiXHnqO5m9hplhp8Po2cCwp34jc+7E7n6c0+XNKZuRtxp&#xA;SJ5onK0OxV2KuxV2KuxV2KuxV2KuxV2KuxV2KuxV2KuxV2KuxV2KuxV2KuxV2KqVza211C0NzEs0&#xA;TdUcBh+OShMxNg0Ug0wzWvy3iflLpMvpt1+rSklf9i/UfT9+bfT9qkbZB8Q5ENR3sKv9J1LT5Cl5&#xA;bvCR3YfCfkw+E/Qc3GPNCYuJtyIyB5KdrZXl3II7WF5nP7Malv1ZKeSMRcjSSQObMNF/LeeTjLqs&#xA;vop1+rxEF/8AZNuo+iuanUdqgbQF+bjzz9zN9O0rT9Oh9KygWFO5UfE3+sx3P05p8uaeQ3I248pE&#xA;80VlTF2KuxV2KuxV2KuxV2KuxV2KuxV2KuxV/9k=</xmpGImg:image>
               </rdf:li>
            </rdf:Alt>
         </xmp:Thumbnails>
         <xmpMM:InstanceID>xmp.iid:048011740720681183D19349DA36CC9E</xmpMM:InstanceID>
         <xmpMM:DocumentID>xmp.did:048011740720681183D19349DA36CC9E</xmpMM:DocumentID>
         <xmpMM:OriginalDocumentID>uuid:5D20892493BFDB11914A8590D31508C8</xmpMM:OriginalDocumentID>
         <xmpMM:RenditionClass>proof:pdf</xmpMM:RenditionClass>
         <xmpMM:DerivedFrom rdf:parseType="Resource">
            <stRef:instanceID>xmp.iid:038011740720681183D19349DA36CC9E</stRef:instanceID>
            <stRef:documentID>xmp.did:038011740720681183D19349DA36CC9E</stRef:documentID>
            <stRef:originalDocumentID>uuid:5D20892493BFDB11914A8590D31508C8</stRef:originalDocumentID>
            <stRef:renditionClass>proof:pdf</stRef:renditionClass>
         </xmpMM:DerivedFrom>
         <xmpMM:History>
            <rdf:Seq>
               <rdf:li rdf:parseType="Resource">
                  <stEvt:action>saved</stEvt:action>
                  <stEvt:instanceID>xmp.iid:8633A85D1C206811822AD11B8B9E0B5F</stEvt:instanceID>
                  <stEvt:when>2019-04-03T19:15:17+09:00</stEvt:when>
                  <stEvt:softwareAgent>Adobe Illustrator CS6 (Macintosh)</stEvt:softwareAgent>
                  <stEvt:changed>/</stEvt:changed>
               </rdf:li>
               <rdf:li rdf:parseType="Resource">
                  <stEvt:action>saved</stEvt:action>
                  <stEvt:instanceID>xmp.iid:048011740720681183D19349DA36CC9E</stEvt:instanceID>
                  <stEvt:when>2019-04-04T18:03:56+09:00</stEvt:when>
                  <stEvt:softwareAgent>Adobe Illustrator CS6 (Macintosh)</stEvt:softwareAgent>
                  <stEvt:changed>/</stEvt:changed>
               </rdf:li>
            </rdf:Seq>
         </xmpMM:History>
         <illustrator:StartupProfile>Print</illustrator:StartupProfile>
         <xmpTPg:HasVisibleOverprint>False</xmpTPg:HasVisibleOverprint>
         <xmpTPg:HasVisibleTransparency>False</xmpTPg:HasVisibleTransparency>
         <xmpTPg:NPages>1</xmpTPg:NPages>
         <xmpTPg:MaxPageSize rdf:parseType="Resource">
            <stDim:w>130.000000</stDim:w>
            <stDim:h>130.000000</stDim:h>
            <stDim:unit>Pixels</stDim:unit>
         </xmpTPg:MaxPageSize>
         <xmpTPg:PlateNames>
            <rdf:Seq>
               <rdf:li>Cyan</rdf:li>
               <rdf:li>Magenta</rdf:li>
               <rdf:li>Yellow</rdf:li>
            </rdf:Seq>
         </xmpTPg:PlateNames>
         <xmpTPg:SwatchGroups>
            <rdf:Seq>
               <rdf:li rdf:parseType="Resource">
                  <xmpG:groupName>Default Swatch Group</xmpG:groupName>
                  <xmpG:groupType>0</xmpG:groupType>
               </rdf:li>
            </rdf:Seq>
         </xmpTPg:SwatchGroups>
         <pdf:Producer>Adobe PDF library 10.01</pdf:Producer>
      </rdf:Description>
   </rdf:RDF>
</x:xmpmeta>
                                                                                                    
                                                                                                    
                                                                                                    
                                                                                                    
                                                                                                    
                                                                                                    
                                                                                                    
                                                                                                    
                                                                                                    
                                                                                                    
                                                                                                    
                                                                                                    
                                                                                                    
                                                                                                    
                                                                                                    
                                                                                                    
                                                                                                    
                                                                                                    
                                                                                                    
                                                                                                    
                           
<?xpacket end="w"?>
	</metadata>
<g>
	<polygon fill="none" points="22.483,30.173 52.716,45.501 82.996,30.173 52.716,14.846 	"/>
	<path fill="#00C0E1" d="M102.691,24.579c0.078,0.058,0.156,0.115,0.23,0.177C102.847,24.694,102.769,24.637,102.691,24.579z"/>
	<path fill="#00C0E1" d="M2.566,24.762c0.082-0.067,0.167-0.129,0.252-0.193C2.733,24.632,2.647,24.695,2.566,24.762z"/>
	<path fill="#00C0E1" d="M102.124,24.196c0.079,0.048,0.159,0.096,0.236,0.147C102.285,24.292,102.205,24.245,102.124,24.196z"/>
	<path fill="#00C0E1" d="M3.126,24.348c0.084-0.056,0.17-0.107,0.256-0.159C3.296,24.242,3.21,24.293,3.126,24.348z"/>
	<path fill="#00C0E1" d="M2.053,25.227c0.08-0.081,0.165-0.156,0.249-0.232C2.216,25.071,2.132,25.147,2.053,25.227z"/>
	<path fill="#00C0E1" d="M1.586,25.742c0.078-0.095,0.16-0.186,0.243-0.276C1.747,25.556,1.664,25.647,1.586,25.742z"/>
	<path fill="#00C0E1" d="M102.181,36.119c-0.074,0.045-0.15,0.086-0.227,0.129C102.031,36.205,102.107,36.165,102.181,36.119z"/>
	<path fill="#00C0E1" d="M102.97,35.549c-0.033,0.028-0.063,0.059-0.099,0.086C102.907,35.609,102.937,35.577,102.97,35.549z"/>
	<path fill="#00C0E1" d="M3.735,36.359c-0.124-0.065-0.245-0.136-0.364-0.208C3.492,36.223,3.612,36.294,3.735,36.359z"/>
	<path fill="#00C0E1" d="M104.23,34.185c-0.016,0.023-0.035,0.044-0.051,0.067C104.195,34.229,104.213,34.208,104.23,34.185z"/>
	<path fill="#00C0E1" d="M103.679,34.867c-0.055,0.06-0.109,0.119-0.164,0.176C103.57,34.986,103.624,34.927,103.679,34.867z"/>
	<path fill="#00C0E1" d="M104.74,33.335c0.027-0.054,0.047-0.109,0.072-0.163c-0.039,0.082-0.078,0.163-0.121,0.243
		C104.706,33.387,104.724,33.363,104.74,33.335z"/>
	<path fill="#00C0E1" d="M3.132,36.003c-0.111-0.074-0.218-0.152-0.324-0.231C2.916,35.851,3.022,35.929,3.132,36.003z"/>
	<path fill="#00C0E1" d="M2.055,35.123c-0.079-0.08-0.154-0.163-0.229-0.246C1.901,34.96,1.976,35.044,2.055,35.123z"/>
	<path fill="#00C0E1" d="M2.57,35.589c-0.096-0.078-0.186-0.16-0.276-0.242C2.384,35.429,2.476,35.511,2.57,35.589z"/>
	<path fill="#00C0E1" d="M105.289,28.51c0.023,0.096,0.045,0.193,0.062,0.29C105.332,28.703,105.312,28.606,105.289,28.51z"/>
	<path fill="#00C0E1" d="M105.086,32.508c-0.038,0.107-0.079,0.213-0.122,0.318C105.008,32.721,105.048,32.615,105.086,32.508z"/>
	<path fill="#00C0E1" d="M105.289,31.837c-0.029,0.121-0.062,0.241-0.1,0.361C105.224,32.078,105.258,31.958,105.289,31.837z"/>
	<path fill="#00C0E1" d="M104.478,26.556c0.068,0.113,0.136,0.227,0.197,0.345C104.615,26.784,104.547,26.67,104.478,26.556z"/>
	<path fill="#00C0E1" d="M104.103,25.996c0.073,0.099,0.146,0.198,0.215,0.302C104.249,26.195,104.176,26.095,104.103,25.996z"/>
	<path fill="#00C0E1" d="M105.086,27.839c0.036,0.104,0.07,0.207,0.103,0.311C105.158,28.045,105.123,27.942,105.086,27.839z"/>
	<path fill="#00C0E1" d="M105.417,31.168c-0.018,0.127-0.041,0.253-0.066,0.379C105.376,31.421,105.4,31.295,105.417,31.168z"/>
	<path fill="#00C0E1" d="M105.482,30.505c-0.006,0.122-0.017,0.244-0.027,0.365C105.465,30.748,105.476,30.627,105.482,30.505z"/>
	<path fill="#00C0E1" d="M104.812,27.174c0.055,0.115,0.105,0.23,0.152,0.346C104.916,27.404,104.866,27.289,104.812,27.174z"/>
	<path fill="#FF6B5F" d="M10.166,23.93l12.316,6.244l30.233-15.327l30.278,15.327l12.338-6.246c2.104-1.064,4.489-0.961,6.428,0.06
		c-0.035-0.019-0.068-0.042-0.104-0.06L55.875,0.754c-1.987-1.006-4.339-1.006-6.326,0.002L3.836,23.93
		c-0.038,0.019-0.072,0.042-0.109,0.062C5.667,22.966,8.059,22.862,10.166,23.93z"/>
	<path fill="#00C0E1" d="M105.482,29.842c0.006,0.11,0.007,0.221,0.007,0.331C105.489,30.063,105.488,29.953,105.482,29.842z"/>
	<path fill="#00C0E1" d="M105.417,29.179c0.016,0.099,0.025,0.199,0.036,0.298C105.443,29.378,105.433,29.278,105.417,29.179z"/>
	<path fill="#00C0E1" d="M103.209,25.007c0.076,0.07,0.153,0.14,0.228,0.213C103.365,25.147,103.288,25.078,103.209,25.007z"/>
	<path fill="#00C0E1" d="M103.679,25.48c0.076,0.083,0.152,0.167,0.225,0.255C103.832,25.648,103.755,25.564,103.679,25.48z"/>
	<path fill="#00C0E1" d="M1.827,34.877c-0.081-0.089-0.162-0.177-0.238-0.271C1.664,34.699,1.746,34.788,1.827,34.877z"/>
	<path fill="#00C0E1" d="M105.489,30.173c0,0.11-0.001,0.221-0.007,0.331C105.488,30.394,105.489,30.284,105.489,30.173z"/>
	<path fill="#00C0E1" d="M105.455,30.87c-0.012,0.1-0.021,0.199-0.036,0.298C105.433,31.069,105.443,30.969,105.455,30.87z"/>
	<path fill="#00C0E1" d="M104.691,33.416c-0.141,0.268-0.291,0.527-0.461,0.769C104.402,33.939,104.552,33.68,104.691,33.416z"/>
	<path fill="#00C0E1" d="M102.872,35.635c-0.221,0.177-0.453,0.336-0.691,0.483C102.422,35.969,102.654,35.809,102.872,35.635z"/>
	<path fill="#F4B601" d="M95.332,36.419l-12.338-6.246L52.716,45.501L22.483,30.174l-12.316,6.244
		c-2.105,1.067-4.492,0.964-6.432-0.058c0.035,0.019,0.066,0.04,0.102,0.058l45.712,23.173c0.995,0.504,2.08,0.756,3.165,0.756
		c1.084,0,2.168-0.252,3.161-0.754l45.778-23.174c0.104-0.052,0.199-0.114,0.301-0.171c-1.055,0.599-2.248,0.927-3.467,0.927
		C97.425,37.175,96.345,36.932,95.332,36.419z"/>
	<path fill="#00C0E1" d="M103.515,35.044c-0.175,0.179-0.355,0.348-0.545,0.506C103.163,35.39,103.342,35.221,103.515,35.044z"/>
	<path fill="#00C0E1" d="M104.179,34.252c-0.156,0.217-0.324,0.421-0.5,0.616C103.857,34.671,104.025,34.466,104.179,34.252z"/>
	<path fill="#00C0E1" d="M104.812,33.173c0.054-0.114,0.104-0.229,0.152-0.346C104.917,32.943,104.867,33.058,104.812,33.173z"/>
	<path fill="#00C0E1" d="M102.921,24.756c0.1,0.081,0.193,0.167,0.288,0.252C103.116,24.922,103.021,24.836,102.921,24.756z"/>
	<path fill="#00C0E1" d="M3.372,36.151c-0.08-0.049-0.16-0.097-0.238-0.148C3.21,36.054,3.291,36.102,3.372,36.151z"/>
	<path fill="#00C0E1" d="M2.809,35.771c-0.08-0.06-0.16-0.119-0.238-0.183C2.647,35.652,2.728,35.711,2.809,35.771z"/>
	<path fill="#00C0E1" d="M2.293,35.346c-0.08-0.074-0.161-0.146-0.239-0.224C2.131,35.2,2.212,35.272,2.293,35.346z"/>
	<path fill="#00C0E1" d="M105.189,32.197c-0.031,0.104-0.065,0.208-0.103,0.311C105.123,32.405,105.158,32.302,105.189,32.197z"/>
	<path fill="#00C0E1" d="M105.351,31.547c-0.019,0.097-0.039,0.193-0.062,0.29C105.312,31.741,105.332,31.644,105.351,31.547z"/>
	<path fill="#00C0E1" d="M1.83,25.465c0.073-0.08,0.146-0.161,0.223-0.239C1.976,25.303,1.903,25.385,1.83,25.465z"/>
	<path fill="#00C0E1" d="M2.301,24.995c0.087-0.079,0.173-0.158,0.265-0.233C2.476,24.836,2.389,24.916,2.301,24.995z"/>
	<path fill="#00C0E1" d="M104.74,27.012c-0.02-0.039-0.043-0.073-0.063-0.11c0.048,0.09,0.093,0.181,0.136,0.273
		C104.787,27.121,104.767,27.066,104.74,27.012z"/>
	<path fill="#00C0E1" d="M104.318,26.298c0.058,0.085,0.108,0.172,0.16,0.259C104.426,26.469,104.374,26.382,104.318,26.298z"/>
	<path fill="#00C0E1" d="M102.361,24.343c0.113,0.075,0.224,0.155,0.33,0.235C102.582,24.498,102.474,24.418,102.361,24.343z"/>
	<path fill="#00C0E1" d="M2.818,24.569c0.102-0.075,0.203-0.15,0.309-0.221C3.021,24.418,2.919,24.493,2.818,24.569z"/>
	<path fill="#00C0E1" d="M103.437,25.22c0.084,0.084,0.164,0.172,0.242,0.26C103.599,25.392,103.521,25.304,103.437,25.22z"/>
	<path fill="#00C0E1" d="M101.76,23.988c0.124,0.066,0.245,0.136,0.364,0.208C102.004,24.124,101.883,24.053,101.76,23.988z"/>
	<path fill="#00C0E1" d="M3.382,24.19c0.113-0.068,0.227-0.135,0.345-0.197C3.61,24.054,3.497,24.121,3.382,24.19z"/>
	<path fill="#00C0E1" d="M103.904,25.735c0.068,0.085,0.135,0.173,0.199,0.261C104.038,25.908,103.972,25.819,103.904,25.735z"/>
	<path fill="#00C0E1" d="M105.351,28.8c0.025,0.125,0.049,0.252,0.066,0.379C105.4,29.052,105.376,28.926,105.351,28.8z"/>
	<path fill="#00C0E1" d="M105.455,29.477c0.012,0.121,0.021,0.243,0.027,0.365C105.476,29.72,105.465,29.599,105.455,29.477z"/>
	<path fill="#00C0E1" d="M104.964,27.52c0.043,0.105,0.084,0.211,0.122,0.318C105.048,27.732,105.008,27.626,104.964,27.52z"/>
	<path fill="#00C0E1" d="M105.189,28.15c0.035,0.12,0.069,0.24,0.1,0.361C105.258,28.389,105.224,28.269,105.189,28.15z"/>
	<path fill="#DC5412" d="M105.086,32.508c0.036-0.104,0.07-0.207,0.103-0.311c0.035-0.12,0.069-0.24,0.1-0.361
		c0.023-0.096,0.045-0.193,0.062-0.29c0.025-0.125,0.049-0.252,0.066-0.379c0.016-0.099,0.025-0.199,0.036-0.298
		c0.012-0.121,0.022-0.243,0.028-0.365c0.004-0.11,0.006-0.221,0.006-0.331s-0.002-0.221-0.006-0.331
		c-0.006-0.122-0.018-0.244-0.028-0.365c-0.011-0.1-0.021-0.199-0.036-0.298c-0.018-0.127-0.041-0.253-0.066-0.379
		c-0.019-0.097-0.039-0.193-0.062-0.29c-0.029-0.121-0.062-0.241-0.1-0.361c-0.031-0.104-0.065-0.208-0.103-0.311
		c-0.038-0.107-0.079-0.213-0.122-0.318c-0.047-0.116-0.099-0.231-0.152-0.346c-0.043-0.092-0.088-0.183-0.137-0.273
		c-0.062-0.118-0.129-0.232-0.197-0.345c-0.052-0.087-0.104-0.174-0.16-0.259c-0.067-0.104-0.142-0.203-0.215-0.302
		c-0.064-0.088-0.131-0.176-0.199-0.261c-0.071-0.088-0.147-0.171-0.225-0.255c-0.078-0.088-0.158-0.176-0.242-0.26
		c-0.074-0.073-0.15-0.143-0.228-0.213c-0.095-0.085-0.188-0.171-0.288-0.252c-0.074-0.062-0.152-0.119-0.23-0.177
		c-0.106-0.081-0.217-0.16-0.33-0.235c-0.076-0.052-0.156-0.099-0.235-0.147c-0.119-0.072-0.239-0.142-0.364-0.208
		c-1.938-1.021-4.322-1.125-6.428-0.06l-12.338,6.246l12.338,6.246c1.014,0.513,2.093,0.756,3.154,0.756
		c1.22,0,2.414-0.328,3.468-0.927c0.075-0.043,0.151-0.084,0.226-0.129c0.238-0.147,0.471-0.307,0.691-0.483
		c0.034-0.027,0.064-0.058,0.098-0.086c0.189-0.158,0.371-0.327,0.545-0.506c0.057-0.058,0.11-0.117,0.166-0.176
		c0.176-0.195,0.344-0.398,0.498-0.616c0.018-0.022,0.036-0.044,0.053-0.067c0.168-0.242,0.32-0.501,0.461-0.769
		c0.041-0.08,0.08-0.162,0.119-0.243c0.056-0.115,0.106-0.23,0.153-0.346C105.007,32.721,105.048,32.615,105.086,32.508z"/>
	<path fill="#DC5412" d="M10.166,36.417l12.316-6.244l-12.316-6.244c-2.108-1.068-4.499-0.963-6.439,0.062
		c-0.118,0.062-0.231,0.129-0.345,0.197c-0.086,0.052-0.172,0.103-0.256,0.159c-0.105,0.07-0.207,0.146-0.309,0.221
		c-0.085,0.063-0.17,0.126-0.252,0.193c-0.092,0.075-0.178,0.154-0.265,0.233c-0.084,0.076-0.169,0.151-0.249,0.232
		c-0.077,0.078-0.149,0.159-0.223,0.239c-0.083,0.091-0.165,0.181-0.243,0.276c-0.063,0.078-0.123,0.159-0.183,0.24
		c-0.079,0.105-0.157,0.211-0.23,0.322c-0.053,0.079-0.101,0.161-0.15,0.241c-0.071,0.118-0.141,0.238-0.206,0.362
		c-0.046,0.085-0.087,0.173-0.129,0.26c-0.057,0.119-0.11,0.238-0.16,0.359c-0.041,0.101-0.08,0.204-0.117,0.307
		c-0.038,0.107-0.073,0.214-0.105,0.322c-0.035,0.116-0.067,0.233-0.097,0.352c-0.024,0.099-0.046,0.198-0.066,0.298
		c-0.024,0.124-0.047,0.248-0.064,0.372c-0.015,0.102-0.026,0.202-0.036,0.304c-0.012,0.12-0.021,0.241-0.027,0.361
		c-0.006,0.111-0.007,0.222-0.007,0.332s0.001,0.221,0.007,0.332c0.006,0.121,0.016,0.241,0.027,0.361
		c0.01,0.102,0.021,0.202,0.036,0.304c0.018,0.125,0.04,0.249,0.064,0.372c0.021,0.1,0.042,0.199,0.066,0.298
		c0.029,0.118,0.062,0.235,0.097,0.352c0.032,0.108,0.067,0.215,0.105,0.322c0.037,0.103,0.076,0.206,0.117,0.307
		c0.05,0.121,0.104,0.24,0.16,0.359c0.042,0.087,0.084,0.175,0.129,0.26c0.065,0.124,0.135,0.243,0.206,0.361
		c0.05,0.082,0.098,0.163,0.15,0.243c0.073,0.11,0.15,0.215,0.229,0.319c0.061,0.082,0.121,0.164,0.186,0.243
		c0.076,0.093,0.157,0.182,0.238,0.271c0.074,0.083,0.149,0.166,0.229,0.246c0.078,0.077,0.159,0.15,0.239,0.224
		c0.091,0.082,0.181,0.164,0.276,0.242c0.078,0.063,0.158,0.123,0.238,0.183c0.106,0.079,0.213,0.158,0.324,0.231
		c0.078,0.052,0.158,0.1,0.238,0.148c0.119,0.072,0.24,0.143,0.364,0.208C5.674,37.382,8.061,37.484,10.166,36.417z"/>
	<path fill="#00D3AA" d="M52.714,86.595c-1.085,0-2.17-0.252-3.165-0.756L3.836,62.664c-3.448-1.748-4.826-5.959-3.078-9.409
		c1.747-3.448,5.959-4.827,9.408-3.079l42.55,21.57l42.616-21.572c3.45-1.745,7.662-0.365,9.405,3.084
		c1.746,3.449,0.365,7.662-3.084,9.408L55.875,85.839C54.882,86.343,53.798,86.595,52.714,86.595z"/>
	<path fill="#C585FF" d="M52.714,111.852c-1.085,0-2.17-0.253-3.165-0.757L3.836,87.921c-3.448-1.748-4.826-5.961-3.078-9.408
		c1.747-3.449,5.959-4.826,9.408-3.08l42.55,21.572l42.616-21.574c3.45-1.744,7.662-0.363,9.405,3.084
		c1.746,3.449,0.365,7.662-3.084,9.408l-45.778,23.174C54.882,111.601,53.798,111.852,52.714,111.852z"/>
</g>
</svg>
